<svg width="80" height="81" viewBox="0 0 80 81" fill="none" xmlns="http://www.w3.org/2000/svg">
<g clip-path="url(#clip0_44_432)">
<path d="M40 80.5C62.0914 80.5 80 62.5914 80 40.5C80 18.4086 62.0914 0.5 40 0.5C17.9086 0.5 0 18.4086 0 40.5C0 62.5914 17.9086 80.5 40 80.5Z" fill="white"/>
<path fill-rule="evenodd" clip-rule="evenodd" d="M59.4404 43.033L56.9105 41.333C56.9205 41.042 56.9305 40.748 56.9305 40.452C56.9305 40.156 56.9205 39.859 56.9105 39.566L59.4305 37.859C59.6328 37.7198 59.7898 37.5244 59.8823 37.2969C59.9747 37.0694 59.9983 36.8198 59.9504 36.579C59.6361 35.0079 59.1289 33.4817 58.4404 32.035C58.3348 31.816 58.1683 31.6322 57.9608 31.5057C57.7532 31.3792 57.5134 31.3154 57.2704 31.322L54.1805 31.415C53.8536 30.9142 53.4962 30.4339 53.1104 29.977L54.1304 27.151C54.2145 26.918 54.227 26.6652 54.1664 26.425C54.1059 26.1848 53.975 25.9682 53.7905 25.803C52.5921 24.7176 51.2696 23.7777 49.8504 23.003C49.6402 22.886 49.4004 22.8332 49.1605 22.851C48.9206 22.8688 48.6911 22.9564 48.5004 23.103L46.0605 24.954C45.484 24.7377 44.8965 24.5522 44.3005 24.398L43.4305 21.52C43.3588 21.288 43.2215 21.0816 43.0352 20.9258C42.8489 20.7701 42.6215 20.6715 42.3804 20.642C41.5604 20.542 40.7304 20.517 39.9504 20.5C39.138 20.5033 38.3267 20.5547 37.5204 20.654C37.2779 20.6822 37.049 20.7811 36.8622 20.9385C36.6755 21.0959 36.5392 21.3047 36.4704 21.539L35.6104 24.422C35.0175 24.5792 34.4333 24.7678 33.8604 24.987L31.4105 23.147C31.2171 23.0015 30.9857 22.9152 30.7443 22.8985C30.5029 22.8818 30.262 22.9355 30.0505 23.053C28.6384 23.8355 27.3228 24.7806 26.1304 25.869C25.9494 26.0372 25.8215 26.2549 25.7629 26.495C25.7042 26.7351 25.7174 26.9872 25.8005 27.22L26.8304 30.04C26.4504 30.505 26.1004 30.987 25.7704 31.484L22.6904 31.409C22.4486 31.4126 22.2123 31.4813 22.0064 31.6081C21.8005 31.7348 21.6326 31.9148 21.5204 32.129C20.8431 33.5794 20.3429 35.106 20.0305 36.676C19.9816 36.918 20.0059 37.1691 20.1003 37.3972C20.1947 37.6254 20.3549 37.8203 20.5605 37.957L23.1004 39.65C23.0804 39.942 23.0704 40.238 23.0704 40.534C23.0704 40.83 23.0804 41.124 23.1004 41.418L20.5804 43.127C20.3751 43.2646 20.2152 43.4598 20.1209 43.6882C20.0266 43.9165 20.0021 44.1677 20.0505 44.41C20.3722 45.9801 20.8825 47.5055 21.5704 48.953C21.6744 49.1731 21.8408 49.3578 22.0488 49.4843C22.2567 49.6109 22.4971 49.6737 22.7404 49.665L25.8204 49.572C26.1506 50.0701 26.5079 50.5498 26.8904 51.009L25.8804 53.835C25.797 54.0673 25.7839 54.3189 25.8426 54.5587C25.9013 54.7984 26.0291 55.0155 26.2104 55.183C27.4086 56.2685 28.7312 57.2084 30.1505 57.983C30.361 58.0988 30.6006 58.151 30.8403 58.1333C31.0799 58.1155 31.3092 58.0286 31.5004 57.883L33.9404 56.031C34.5168 56.2472 35.1043 56.4328 35.7004 56.587L36.5704 59.467C36.6428 59.7005 36.7816 59.9078 36.9698 60.0637C37.158 60.2196 37.3876 60.3173 37.6304 60.345C38.417 60.4381 39.2083 60.4856 40.0004 60.487H40.0605C40.8728 60.4831 41.6841 60.4317 42.4904 60.333C42.7312 60.303 42.958 60.2032 43.1428 60.046C43.3275 59.8887 43.4623 59.6809 43.5305 59.448L44.3904 56.564C44.9866 56.4064 45.5741 56.2174 46.1504 55.998L48.6004 57.838C48.7922 57.9825 49.0219 58.0683 49.2614 58.0851C49.501 58.102 49.7402 58.0492 49.9504 57.933C51.3638 57.1523 52.6797 56.2067 53.8704 55.116C54.0516 54.948 54.1796 54.7306 54.2382 54.4906C54.2969 54.2506 54.2837 53.9986 54.2004 53.766L53.1705 50.944C53.5523 50.4853 53.9062 50.0041 54.2304 49.503L57.3204 49.579C57.5641 49.5925 57.8061 49.5307 58.0136 49.4021C58.2211 49.2735 58.384 49.0843 58.4804 48.86C59.1663 47.4116 59.6669 45.8826 59.9704 44.309C60.0183 44.0677 59.9936 43.8177 59.8992 43.5905C59.8049 43.3633 59.6451 43.1693 59.4404 43.033ZM56.5505 47.062L53.5804 46.99C53.3604 46.9916 53.1444 47.0485 52.9522 47.1555C52.76 47.2624 52.5978 47.4159 52.4804 47.602C51.9999 48.4025 51.444 49.1552 50.8204 49.85C50.6674 50.0183 50.5633 50.2251 50.5192 50.4482C50.4752 50.6713 50.4928 50.9022 50.5704 51.116L51.5605 53.822C50.8896 54.3826 50.1776 54.892 49.4305 55.346L47.0804 53.578C46.9047 53.447 46.6978 53.3643 46.4802 53.3383C46.2626 53.3124 46.042 53.344 45.8404 53.43C44.97 53.8047 44.066 54.0957 43.1404 54.299C42.9206 54.3456 42.7173 54.4505 42.5519 54.6027C42.3866 54.7549 42.2651 54.9488 42.2004 55.164L41.3804 57.936C40.9304 57.972 40.4905 57.99 40.0505 57.991C39.5905 57.991 39.1804 57.976 38.7204 57.944L37.8904 55.177C37.8233 54.9635 37.701 54.7715 37.5359 54.6204C37.3709 54.4692 37.1689 54.3642 36.9504 54.316C36.0213 54.1205 35.1137 53.8345 34.2404 53.462C34.0387 53.3749 33.8173 53.3434 33.5993 53.3706C33.3813 53.3979 33.1745 53.4829 33.0004 53.617L30.6505 55.396C29.9053 54.9431 29.1935 54.4374 28.5204 53.883L29.4904 51.172C29.5681 50.9581 29.586 50.727 29.5419 50.5037C29.4979 50.2804 29.3936 50.0734 29.2404 49.905C28.6083 49.2191 28.0486 48.4698 27.5704 47.669C27.4569 47.4775 27.294 47.3201 27.0987 47.2133C26.9034 47.1065 26.6829 47.0542 26.4604 47.062L23.5004 47.152C23.1683 46.3644 22.8943 45.5536 22.6805 44.726L25.1104 43.089C25.2976 42.9618 25.4468 42.7862 25.5419 42.5808C25.637 42.3754 25.6745 42.148 25.6505 41.923C25.6005 41.467 25.5804 41.007 25.5704 40.539C25.5684 40.0757 25.5918 39.6127 25.6404 39.152C25.6629 38.9265 25.6236 38.6991 25.5267 38.4942C25.4298 38.2894 25.279 38.1147 25.0904 37.989L22.6605 36.365C22.8677 35.5376 23.1351 34.7265 23.4604 33.938L26.4205 34.01C26.6419 34.0091 26.8596 33.9525 27.0535 33.8456C27.2475 33.7387 27.4114 33.5848 27.5305 33.398C28.0084 32.5943 28.5643 31.8396 29.1904 31.145C29.3419 30.9759 29.4445 30.7686 29.4868 30.5454C29.5291 30.3223 29.5096 30.0919 29.4305 29.879L28.4404 27.179C29.1143 26.6223 29.826 26.1131 30.5704 25.655L32.9205 27.421C33.0972 27.5539 33.3059 27.6377 33.5255 27.6637C33.745 27.6897 33.9676 27.657 34.1705 27.569C35.041 27.1944 35.945 26.9031 36.8704 26.699C37.0904 26.6526 37.2938 26.5478 37.4592 26.3955C37.6246 26.2433 37.746 26.0493 37.8105 25.834L38.6304 23.065C39.0704 23.03 39.5204 23.012 39.9504 23.011C40.3943 22.9998 40.8385 23.0156 41.2805 23.058L42.1204 25.825C42.1852 26.0396 42.3068 26.2327 42.4722 26.3839C42.6377 26.5351 42.8409 26.6388 43.0605 26.684C43.9859 26.8816 44.89 27.1679 45.7604 27.539C45.9641 27.6248 46.1868 27.6556 46.4062 27.6284C46.6255 27.6012 46.8339 27.517 47.0104 27.384L49.3504 25.605C50.0995 26.0572 50.8147 26.5632 51.4904 27.119L50.5104 29.825C50.4353 30.0383 50.4188 30.2679 50.4628 30.4897C50.5068 30.7116 50.6096 30.9175 50.7604 31.086C51.3921 31.7786 51.9547 32.5312 52.4404 33.333C52.5538 33.5246 52.7168 33.682 52.9122 33.7888C53.1075 33.8957 53.328 33.9479 53.5505 33.94L56.5104 33.851C56.8392 34.6382 57.1098 35.4483 57.3204 36.275L54.9005 37.911C54.7137 38.0362 54.5646 38.2101 54.4694 38.4138C54.3742 38.6175 54.3366 38.8434 54.3604 39.067C54.4004 39.526 54.4305 39.989 54.4305 40.467C54.4305 40.945 54.4104 41.403 54.3704 41.861C54.3482 42.0853 54.3878 42.3115 54.4847 42.515C54.5816 42.7186 54.7323 42.8918 54.9205 43.016L57.3404 44.641C57.1364 45.4662 56.8724 46.2753 56.5505 47.062ZM40.0004 34.253C38.765 34.2536 37.5575 34.6205 36.5306 35.3073C35.5037 35.9941 34.7035 36.9699 34.2311 38.1115C33.7588 39.253 33.6354 40.509 33.8768 41.7206C34.1181 42.9322 34.7134 44.045 35.5872 44.9184C36.461 45.7917 37.5741 46.3864 38.7858 46.6272C39.9975 46.868 41.2534 46.7441 42.3947 46.2712C43.536 45.7983 44.5115 44.9976 45.1978 43.9703C45.8841 42.9431 46.2504 41.7354 46.2504 40.5C46.247 38.8437 45.5873 37.2563 44.4158 36.0854C43.2444 34.9146 41.6567 34.2556 40.0004 34.253ZM40.0004 44.253C39.2592 44.2526 38.5347 44.0324 37.9186 43.6204C37.3025 43.2083 36.8225 42.6228 36.5391 41.9379C36.2558 41.253 36.1819 40.4995 36.3267 39.7726C36.4716 39.0457 36.8286 38.378 37.3528 37.8541C37.8771 37.3301 38.5449 36.9733 39.2719 36.8289C39.9989 36.6844 40.7525 36.7587 41.4372 37.0425C42.1219 37.3262 42.7072 37.8066 43.119 38.4229C43.5307 39.0393 43.7504 39.7638 43.7504 40.505C43.748 41.4982 43.3519 42.4499 42.649 43.1516C41.946 43.8532 40.9936 44.2475 40.0004 44.248V44.253ZM50.5004 36.46C50.4429 36.3049 50.355 36.1628 50.2421 36.0419C50.1292 35.921 49.9935 35.8238 49.8427 35.7558C49.6919 35.6878 49.5291 35.6505 49.3637 35.646C49.1983 35.6414 49.0338 35.6698 48.8795 35.7294C48.7251 35.789 48.5842 35.8787 48.4648 35.9932C48.3454 36.1077 48.25 36.2448 48.184 36.3965C48.1181 36.5482 48.0828 36.7115 48.0805 36.8769C48.0782 37.0423 48.1088 37.2065 48.1705 37.36C48.4115 37.9955 48.5792 38.6565 48.6705 39.33C48.7218 39.7192 48.7485 40.1114 48.7504 40.504C48.7512 42.2348 48.2388 43.9269 47.2778 45.3663C46.3168 46.8058 44.9504 47.9279 43.3516 48.5908C41.7528 49.2537 39.9934 49.4275 38.2958 49.0904C36.5982 48.7532 35.0387 47.9201 33.8146 46.6966C32.5905 45.473 31.7568 43.914 31.4189 42.2165C31.0809 40.5191 31.2539 38.7595 31.9161 37.1604C32.5782 35.5613 33.6997 34.1945 35.1387 33.2329C36.5777 32.2713 38.2697 31.758 40.0004 31.758C41.1248 31.7555 42.239 31.9722 43.2805 32.396C43.4332 32.4616 43.5976 32.4961 43.7639 32.4974C43.9301 32.4988 44.0949 32.4669 44.2487 32.4037C44.4025 32.3406 44.5422 32.2473 44.6595 32.1295C44.7768 32.0117 44.8695 31.8717 44.9321 31.7176C44.9946 31.5635 45.0258 31.3985 45.0237 31.2322C45.0217 31.066 44.9865 30.9018 44.9202 30.7493C44.854 30.5968 44.7579 30.4591 44.6378 30.3441C44.5176 30.2292 44.3757 30.1394 44.2204 30.08C41.9876 29.1774 39.524 29.0156 37.1923 29.6183C34.8606 30.2211 32.7842 31.5565 31.2685 33.4281C29.7528 35.2996 28.8781 37.6084 28.7731 40.0144C28.6682 42.4204 29.3384 44.7966 30.6854 46.793C32.0323 48.7895 33.9847 50.3007 36.2551 51.1042C38.5254 51.9077 40.9937 51.9611 43.2966 51.2563C45.5995 50.5516 47.6153 49.1261 49.0472 47.1897C50.4791 45.2533 51.2514 42.9083 51.2504 40.5C51.2517 39.9983 51.2183 39.4971 51.1504 39C51.0298 38.13 50.8117 37.2763 50.5004 36.455V36.46Z" fill="#262626"/>
</g>
<defs>
<clipPath id="clip0_44_432">
<rect width="80" height="80" fill="white" transform="translate(0 0.5)"/>
</clipPath>
</defs>
</svg>
