<svg width="80" height="81" viewBox="0 0 80 81" fill="none" xmlns="http://www.w3.org/2000/svg">
<g id="operativnaya_dostavka.svg" clip-path="url(#clip0_44_442)">
<path id="Vector" d="M40 80.5C62.0914 80.5 80 62.5914 80 40.5C80 18.4086 62.0914 0.5 40 0.5C17.9086 0.5 0 18.4086 0 40.5C0 62.5914 17.9086 80.5 40 80.5Z" fill="white"/>
<path id="Vector_2" fill-rule="evenodd" clip-rule="evenodd" d="M27.3001 49.807C27.2111 49.6665 27.0949 49.5451 26.9583 49.4502C26.8217 49.3552 26.6675 49.2886 26.5048 49.2542C26.342 49.2197 26.1741 49.2183 26.0108 49.2498C25.8474 49.2814 25.6921 49.3453 25.5539 49.4379C25.4156 49.5304 25.2973 49.6497 25.206 49.7887C25.1146 49.9277 25.0519 50.0836 25.0218 50.2472C24.9916 50.4107 24.9944 50.5787 25.0302 50.7411C25.066 50.9036 25.1339 51.0572 25.23 51.193L27.72 54.944C27.7991 55.0576 27.8973 55.1567 28.01 55.237C28.02 55.246 28.0301 55.259 28.0401 55.267C28.0553 55.2785 28.0721 55.2876 28.09 55.294C28.1631 55.3394 28.24 55.3782 28.32 55.41C28.36 55.423 28.3901 55.438 28.4201 55.448C28.5273 55.4798 28.6383 55.4966 28.75 55.498C28.76 55.498 28.76 55.498 28.76 55.498C28.933 55.4934 29.1032 55.4532 29.26 55.38C29.2947 55.3665 29.3281 55.3501 29.36 55.331C29.3941 55.3184 29.4274 55.304 29.46 55.288C29.5523 55.2178 29.6332 55.1339 29.7 55.039C29.7286 55.0202 29.7554 54.9988 29.7801 54.975L29.8101 54.936L36.0201 46.225C36.1155 46.0917 36.1836 45.941 36.2207 45.7813C36.2579 45.6217 36.2633 45.4562 36.2365 45.2945C36.2097 45.1328 36.1512 44.978 36.0646 44.8388C35.978 44.6997 35.8648 44.5789 35.7315 44.4835C35.5982 44.3881 35.4474 44.3199 35.2878 44.2828C35.1281 44.2456 34.9628 44.2403 34.8011 44.2671C34.6393 44.2939 34.4845 44.3523 34.3454 44.4389C34.2062 44.5255 34.0854 44.6387 33.99 44.772L28.8001 52.048L27.3001 49.807ZM36.25 50.5C36.0864 50.5003 35.9244 50.5329 35.7735 50.5959C35.6225 50.659 35.4855 50.7512 35.3703 50.8673C35.255 50.9835 35.1639 51.1213 35.1021 51.2727C35.0403 51.4242 35.009 51.5864 35.01 51.75C35.0092 52.9848 34.6424 54.1916 33.956 55.218C33.2695 56.2443 32.2941 57.0441 31.1532 57.5163C30.0123 57.9885 28.7571 58.1119 27.5461 57.8709C26.335 57.6299 25.2227 57.0353 24.3495 56.1623C23.4763 55.2892 22.8815 54.1769 22.6403 52.966C22.3991 51.755 22.5223 50.4997 22.9943 49.3587C23.4663 48.2177 24.266 47.2423 25.2923 46.5557C26.3185 45.869 27.5253 45.502 28.76 45.501C29.0829 45.4881 29.3882 45.3508 29.6121 45.1178C29.836 44.8848 29.961 44.5742 29.961 44.251C29.961 43.9279 29.836 43.6173 29.6121 43.3843C29.3882 43.1513 29.0829 43.014 28.76 43.001C27.029 42.9991 25.3363 43.5105 23.896 44.4708C22.4558 45.4311 21.3328 46.797 20.669 48.3956C20.0052 49.9943 19.8304 51.7539 20.1669 53.4519C20.5034 55.1499 21.336 56.71 22.5594 57.9347C23.7827 59.1594 25.3417 59.9937 27.0393 60.3322C28.7369 60.6706 30.4968 60.4979 32.0962 59.8359C33.6957 59.174 35.0628 58.0525 36.0247 56.6133C36.9866 55.1742 37.5 53.482 37.5 51.751C37.5002 51.5868 37.4679 51.4241 37.4052 51.2724C37.3424 51.1206 37.2504 50.9827 37.1343 50.8665C37.0182 50.7503 36.8804 50.6582 36.7287 50.5953C36.5769 50.5324 36.4143 50.5 36.25 50.5ZM59.98 29.257V29.251C59.974 29.1098 59.9471 28.9703 59.9001 28.837C59.8909 28.806 59.8774 28.7763 59.86 28.749C59.807 28.6195 59.7327 28.4999 59.64 28.395C59.6248 28.3879 59.6111 28.3777 59.6 28.365C59.543 28.3093 59.483 28.2569 59.4201 28.208C59.3684 28.1791 59.3149 28.1534 59.26 28.131C59.2485 28.1194 59.2349 28.1099 59.22 28.103L41.74 20.603C41.7367 20.6035 41.7333 20.6035 41.73 20.603C41.6111 20.5591 41.4865 20.5325 41.36 20.524C41.32 20.524 41.29 20.504 41.25 20.504C41.1892 20.5105 41.129 20.5219 41.07 20.538C40.9677 20.5477 40.8671 20.5695 40.7701 20.603H40.76L32.0501 24.338H32.0401L23.2801 28.098C23.2649 28.1035 23.2512 28.1124 23.24 28.124C23.185 28.1467 23.1315 28.1731 23.08 28.203C23.013 28.2467 22.9525 28.2996 22.9001 28.36C22.8901 28.372 22.87 28.379 22.86 28.39C22.7643 28.4945 22.6866 28.6141 22.63 28.744L22.6 28.832C22.5482 28.964 22.5212 29.1043 22.52 29.246V40.5C22.52 40.8316 22.6517 41.1495 22.8861 41.3839C23.1206 41.6183 23.4385 41.75 23.77 41.75C24.1016 41.75 24.4195 41.6183 24.654 41.3839C24.8884 41.1495 25.02 40.8316 25.02 40.5V31.146L40 37.574V56.75C40.0046 56.8988 40.0351 57.0457 40.09 57.184L40.12 57.273C40.1804 57.3972 40.2578 57.5123 40.35 57.615C40.37 57.633 40.3901 57.647 40.4101 57.664C40.4563 57.7115 40.5065 57.755 40.5601 57.794C40.6001 57.821 40.65 57.834 40.69 57.856C40.7317 57.8785 40.7752 57.8976 40.82 57.913C40.9664 57.9728 41.1233 58.0024 41.2814 58C41.4395 57.9976 41.5955 57.9632 41.74 57.899L59.22 50.399C59.4452 50.3029 59.6374 50.1428 59.7725 49.9386C59.9076 49.7343 59.9797 49.4949 59.98 49.25V29.257ZM49.99 31.642L35.6801 25.5L41.25 23.109L55.5601 29.249L49.99 31.642ZM26.94 29.251L32.51 26.86L46.82 33.001L41.25 35.392L26.94 29.251ZM57.48 48.426L42.5 54.855V37.575L57.48 31.147V48.426ZM50.24 48.209C50.405 48.2073 50.5681 48.1734 50.72 48.109L54.21 46.65H54.22C54.3705 46.5867 54.5066 46.4935 54.62 46.376C54.6716 46.3188 54.7153 46.2549 54.75 46.186C54.8019 46.12 54.8487 46.0501 54.89 45.977C54.9501 45.8245 54.9806 45.6619 54.98 45.498V41.75C54.98 41.4198 54.8489 41.1032 54.6154 40.8697C54.3819 40.6362 54.0652 40.505 53.735 40.505C53.4048 40.505 53.0881 40.6362 52.8546 40.8697C52.6212 41.1032 52.49 41.4198 52.49 41.75V44.667L49.76 45.806C49.4939 45.9175 49.2745 46.1176 49.1391 46.3723C49.0036 46.6271 48.9605 46.9209 49.017 47.2039C49.0735 47.4868 49.2262 47.7415 49.4491 47.9247C49.672 48.108 49.9515 48.2084 50.24 48.209Z" fill="#262626"/>
</g>
<defs>
<clipPath id="clip0_44_442">
<rect width="80" height="80" fill="white" transform="translate(0 0.5)"/>
</clipPath>
</defs>
</svg>
