<svg width="80" height="81" viewBox="0 0 80 81" fill="none" xmlns="http://www.w3.org/2000/svg">
<g id="shirokij_assortiment.svg" clip-path="url(#clip0_44_452)">
<path id="Vector" d="M40 80.5C62.0914 80.5 80 62.5914 80 40.5C80 18.4086 62.0914 0.5 40 0.5C17.9086 0.5 0 18.4086 0 40.5C0 62.5914 17.9086 80.5 40 80.5Z" fill="white"/>
<path id="Vector_2" fill-rule="evenodd" clip-rule="evenodd" d="M48.5105 25.5001H46.0005V24.2511C46.0005 23.9195 45.8688 23.6016 45.6344 23.3672C45.4 23.1328 45.082 23.0011 44.7505 23.0011H40.3105C39.875 22.2414 39.2466 21.6103 38.4889 21.1713C37.7312 20.7324 36.8711 20.5012 35.9955 20.5012C35.1199 20.5012 34.2597 20.7324 33.5021 21.1713C32.7444 21.6103 32.1161 22.2414 31.6805 23.0011H27.2405C26.909 23.0011 26.591 23.1328 26.3566 23.3672C26.1221 23.6016 25.9905 23.9195 25.9905 24.2511V25.5001H23.4905C22.8266 25.5003 22.1899 25.7635 21.7195 26.232C21.2491 26.7005 20.9834 27.3362 20.9805 28.0001V58.0001C20.9831 58.664 21.2487 59.2999 21.7191 59.7684C22.1895 60.237 22.8265 60.5001 23.4905 60.5001H48.5105C49.1735 60.5001 49.8094 60.2367 50.2782 59.7678C50.747 59.299 51.0105 58.6631 51.0105 58.0001V28.0001C51.0105 27.337 50.747 26.7011 50.2782 26.2323C49.8094 25.7635 49.1735 25.5001 48.5105 25.5001ZM28.4905 25.5001H32.4705C32.7286 25.4999 32.9805 25.4201 33.1917 25.2715C33.4028 25.123 33.5631 24.913 33.6505 24.6701C33.8195 24.1827 34.1361 23.7601 34.5564 23.4611C34.9767 23.162 35.4797 23.0013 35.9955 23.0013C36.5113 23.0013 37.0143 23.162 37.4346 23.4611C37.8548 23.7601 38.1715 24.1827 38.3405 24.6701C38.4276 24.9132 38.5878 25.1233 38.7991 25.2719C39.0103 25.4205 39.2623 25.5002 39.5205 25.5001H43.5005V28.0001H28.4905V25.5001ZM48.5105 58.0001H23.4905V28.0001H25.9905V29.2501C25.9905 29.5816 26.1221 29.8995 26.3566 30.1339C26.591 30.3684 26.909 30.5001 27.2405 30.5001H44.7505C45.082 30.5001 45.4 30.3684 45.6344 30.1339C45.8688 29.8995 46.0005 29.5816 46.0005 29.2501V28.0001H48.5105V58.0001ZM44.7505 35.5001H38.5005C38.169 35.5001 37.851 35.6318 37.6166 35.8662C37.3822 36.1006 37.2505 36.4185 37.2505 36.7501C37.2505 37.0816 37.3822 37.3995 37.6166 37.6339C37.851 37.8684 38.169 38.0001 38.5005 38.0001H44.7505C45.082 38.0001 45.4 37.8684 45.6344 37.6339C45.8688 37.3995 46.0005 37.0816 46.0005 36.7501C46.0005 36.4185 45.8688 36.1006 45.6344 35.8662C45.4 35.6318 45.082 35.5001 44.7505 35.5001ZM44.7505 43.0001H38.5005C38.169 43.0001 37.851 43.1318 37.6166 43.3662C37.3822 43.6006 37.2505 43.9185 37.2505 44.2501C37.2505 44.5816 37.3822 44.8995 37.6166 45.1339C37.851 45.3684 38.169 45.5001 38.5005 45.5001H44.7505C45.082 45.5001 45.4 45.3684 45.6344 45.1339C45.8688 44.8995 46.0005 44.5816 46.0005 44.2501C46.0005 43.9185 45.8688 43.6006 45.6344 43.3662C45.4 43.1318 45.082 43.0001 44.7505 43.0001ZM44.7505 50.5001H38.5005C38.169 50.5001 37.851 50.6318 37.6166 50.8662C37.3822 51.1006 37.2505 51.4185 37.2505 51.7501C37.2505 52.0816 37.3822 52.3995 37.6166 52.6339C37.851 52.8684 38.169 53.0001 38.5005 53.0001H44.7505C45.082 53.0001 45.4 52.8684 45.6344 52.6339C45.8688 52.3995 46.0005 52.0816 46.0005 51.7501C46.0005 51.4185 45.8688 51.1006 45.6344 50.8662C45.4 50.6318 45.082 50.5001 44.7505 50.5001ZM59.7705 29.2511V26.7511C59.7701 26.5862 59.7372 26.423 59.6736 26.2709C59.61 26.1187 59.517 25.9806 59.3999 25.8645C59.2828 25.7484 59.1441 25.6565 58.9915 25.5941C58.8388 25.5318 58.6754 25.5001 58.5105 25.5011H56.0105C55.679 25.5011 55.361 25.6328 55.1266 25.8672C54.8922 26.1016 54.7605 26.4195 54.7605 26.7511V29.2511C54.5963 29.2509 54.4337 29.2832 54.282 29.3459C54.1303 29.4087 53.9924 29.5008 53.8763 29.6169C53.7602 29.733 53.6681 29.8708 53.6053 30.0226C53.5426 30.1743 53.5104 30.3369 53.5105 30.5011V51.7501C53.5105 52.0816 53.6422 52.3995 53.8766 52.6339C54.111 52.8684 54.429 53.0001 54.7605 53.0001V55.5001C54.7605 55.8316 54.8922 56.1495 55.1266 56.3839C55.361 56.6184 55.679 56.7501 56.0105 56.7501V59.2501C56.0105 59.5816 56.1422 59.8995 56.3766 60.1339C56.611 60.3684 56.929 60.5001 57.2605 60.5001C57.592 60.5001 57.91 60.3684 58.1444 60.1339C58.3788 59.8995 58.5105 59.5816 58.5105 59.2501V56.7501C58.6754 56.751 58.8388 56.7194 58.9915 56.657C59.1441 56.5946 59.2828 56.5027 59.3999 56.3866C59.517 56.2705 59.61 56.1324 59.6736 55.9803C59.7372 55.8281 59.7701 55.6649 59.7705 55.5001V53.0001C60.102 53.0001 60.42 52.8684 60.6544 52.6339C60.8888 52.3995 61.0205 52.0816 61.0205 51.7501V30.5001C61.0205 30.336 60.9881 30.1735 60.9253 30.0219C60.8625 29.8702 60.7704 29.7325 60.6543 29.6165C60.5382 29.5005 60.4004 29.4086 60.2488 29.3459C60.0971 29.2831 59.9346 29.2509 59.7705 29.2511ZM56.0105 31.7511H58.5105V50.5001H56.0105V31.7501V31.7511ZM32.4905 33.5001L29.6105 37.347L28.1205 35.8661C28.0057 35.7445 27.8677 35.6472 27.7146 35.5799C27.5615 35.5125 27.3966 35.4766 27.2294 35.4742C27.0622 35.4717 26.8962 35.5028 26.7412 35.5656C26.5862 35.6283 26.4455 35.7215 26.3271 35.8397C26.2088 35.9578 26.1154 36.0985 26.0524 36.2533C25.9893 36.4082 25.9579 36.5741 25.9601 36.7413C25.9623 36.9085 25.9979 37.0735 26.0649 37.2267C26.132 37.3799 26.2291 37.518 26.3505 37.6331L28.8605 40.1331C28.8805 40.1551 28.9105 40.1631 28.9305 40.1831C28.9505 40.2031 28.9705 40.2311 28.9905 40.2491C29.0512 40.2871 29.1148 40.3205 29.1805 40.3491C29.2217 40.3754 29.2652 40.3978 29.3105 40.416C29.4476 40.4698 29.5932 40.4983 29.7405 40.5001C29.9171 40.4985 30.0912 40.4582 30.2505 40.382C30.3024 40.3516 30.3525 40.3183 30.4005 40.2821C30.4816 40.2385 30.5586 40.1876 30.6305 40.1301C30.6505 40.1051 30.6605 40.0721 30.6805 40.0451C30.7005 40.0181 30.7205 40.0181 30.7405 39.9961L34.4905 34.9961C34.5905 34.8654 34.6635 34.7162 34.7051 34.557C34.7467 34.3978 34.7561 34.2319 34.7328 34.0691C34.7095 33.9062 34.654 33.7496 34.5695 33.6085C34.4849 33.4673 34.3731 33.3445 34.2405 33.2471C33.9748 33.0487 33.6412 32.964 33.3131 33.0114C32.985 33.0589 32.6891 33.2346 32.4905 33.5001ZM32.4905 41.0001L29.6105 44.8481L28.1205 43.3661C27.8849 43.1369 27.5685 43.0096 27.2399 43.0117C26.9112 43.0139 26.5966 43.1453 26.364 43.3776C26.1315 43.6099 25.9997 43.9244 25.9972 44.2531C25.9947 44.5817 26.1215 44.8982 26.3505 45.1341L28.8605 47.6341C28.8805 47.6551 28.9105 47.6641 28.9305 47.6841C28.9505 47.7041 28.9705 47.7311 28.9905 47.7501C29.0512 47.7881 29.1148 47.8215 29.1805 47.8501C29.2217 47.8764 29.2652 47.8988 29.3105 47.9171C29.4476 47.9708 29.5932 47.9993 29.7405 48.0011C29.9171 47.9995 30.0912 47.9592 30.2505 47.8831C30.3005 47.8591 30.3505 47.8181 30.4005 47.7831C30.4814 47.7391 30.5583 47.6883 30.6305 47.6311C30.6505 47.6051 30.6605 47.5731 30.6805 47.5461C30.7005 47.5191 30.7205 47.5191 30.7405 47.4971L34.4905 42.4971C34.5905 42.3664 34.6635 42.2172 34.7051 42.058C34.7467 41.8988 34.7561 41.7329 34.7328 41.57C34.7095 41.4072 34.654 41.2506 34.5695 41.1094C34.4849 40.9683 34.3731 40.8454 34.2405 40.748C33.9748 40.5499 33.6414 40.4651 33.3134 40.5124C32.9853 40.5596 32.6894 40.735 32.4905 41.0001ZM32.4905 48.5001L29.6105 52.347L28.1205 50.8661C27.884 50.642 27.5694 50.519 27.2437 50.5232C26.9179 50.5275 26.6068 50.6586 26.3762 50.8888C26.1457 51.1189 26.0139 51.43 26.0092 51.7557C26.0044 52.0814 26.1268 52.3962 26.3505 52.6331L28.8605 55.1331C28.8805 55.1541 28.9105 55.1621 28.9305 55.1831C28.9505 55.2041 28.9705 55.23 28.9905 55.248C29.0515 55.2856 29.115 55.3191 29.1805 55.3481C29.2215 55.3744 29.2651 55.3965 29.3105 55.4141C29.4474 55.4686 29.5931 55.4974 29.7405 55.4991C29.917 55.497 30.091 55.4568 30.2505 55.3811C30.3023 55.3506 30.3525 55.3172 30.4005 55.2811C30.4816 55.2378 30.5586 55.1873 30.6305 55.1301C30.6505 55.1041 30.6605 55.0721 30.6805 55.0451C30.7005 55.0181 30.7205 55.0171 30.7405 54.9951L34.4905 49.9951C34.5905 49.8644 34.6635 49.7151 34.7051 49.556C34.7467 49.3968 34.7561 49.2309 34.7328 49.0681C34.7095 48.9052 34.654 48.7486 34.5695 48.6075C34.4849 48.4663 34.3731 48.3434 34.2405 48.2461C33.9746 48.0481 33.641 47.9637 33.313 48.0113C32.9849 48.0589 32.6891 48.2347 32.4905 48.5001Z" fill="#262626"/>
</g>
<defs>
<clipPath id="clip0_44_452">
<rect width="80" height="80" fill="white" transform="translate(0 0.5)"/>
</clipPath>
</defs>
</svg>
