<svg width="80" height="80" viewBox="0 0 80 80" fill="none" xmlns="http://www.w3.org/2000/svg">
<g clip-path="url(#clip0_44_340)">
<path d="M40 80C62.0914 80 80 62.0914 80 40C80 17.9086 62.0914 0 40 0C17.9086 0 0 17.9086 0 40C0 62.0914 17.9086 80 40 80Z" fill="white"/>
<path fill-rule="evenodd" clip-rule="evenodd" d="M36.4296 56.5481H32.8695C32.5526 56.5572 32.2518 56.6894 32.0309 56.9167C31.81 57.1441 31.6864 57.4486 31.6864 57.7656C31.6864 58.0826 31.81 58.3871 32.0309 58.6144C32.2518 58.8417 32.5526 58.974 32.8695 58.9831H36.4296C36.7464 58.974 37.0472 58.8417 37.2681 58.6144C37.489 58.3871 37.6127 58.0826 37.6127 57.7656C37.6127 57.4486 37.489 57.1441 37.2681 56.9167C37.0472 56.6894 36.7464 56.5572 36.4296 56.5481ZM47.1295 56.5481H43.5596C43.2427 56.5572 42.9419 56.6894 42.7209 56.9167C42.5 57.1441 42.3765 57.4486 42.3765 57.7656C42.3765 58.0826 42.5 58.3871 42.7209 58.6144C42.9419 58.8417 43.2427 58.974 43.5596 58.9831H47.1295C47.4464 58.974 47.7472 58.8417 47.9681 58.6144C48.1891 58.3871 48.3126 58.0826 48.3126 57.7656C48.3126 57.4486 48.1891 57.1441 47.9681 56.9167C47.7472 56.6894 47.4464 56.5572 47.1295 56.5481ZM37.6195 29.7581H42.3795C42.6964 29.749 42.9972 29.6168 43.2181 29.3894C43.4391 29.1621 43.5626 28.8576 43.5626 28.5406C43.5626 28.2236 43.4391 27.9191 43.2181 27.6918C42.9972 27.4644 42.6964 27.3322 42.3795 27.3231H37.6195C37.3026 27.3322 37.0018 27.4644 36.7809 27.6918C36.56 27.9191 36.4364 28.2236 36.4364 28.5406C36.4364 28.8576 36.56 29.1621 36.7809 29.3894C37.0018 29.6168 37.3026 29.749 37.6195 29.7581ZM45.9395 32.1941H34.0596C33.7427 32.2032 33.4419 32.3354 33.2209 32.5628C33 32.7901 32.8765 33.0946 32.8765 33.4116C32.8765 33.7286 33 34.0331 33.2209 34.2604C33.4419 34.4877 33.7427 34.62 34.0596 34.6291H45.9395C46.2563 34.62 46.5572 34.4877 46.7781 34.2604C46.999 34.0331 47.1226 33.7286 47.1226 33.4116C47.1226 33.0946 46.999 32.7901 46.7781 32.5628C46.5572 32.3354 46.2563 32.2032 45.9395 32.1941ZM45.9395 37.0641H34.0596C33.7365 37.0641 33.4267 37.1924 33.1982 37.4208C32.9698 37.6493 32.8416 37.9591 32.8416 38.2821C32.8416 38.6051 32.9698 38.9149 33.1982 39.1433C33.4267 39.3718 33.7365 39.5001 34.0596 39.5001H45.9395C46.2625 39.5001 46.5724 39.3718 46.8008 39.1433C47.0292 38.9149 47.1575 38.6051 47.1575 38.2821C47.1575 37.9591 47.0292 37.6493 46.8008 37.4208C46.5724 37.1924 46.2625 37.0641 45.9395 37.0641ZM59.0095 54.1121V38.2821C59.0095 38.2361 58.9895 38.1981 58.9895 38.1531C58.9825 38.0717 58.9656 37.9915 58.9395 37.9141C58.9159 37.8345 58.8823 37.7582 58.8395 37.6871C58.8273 37.6467 58.8106 37.6078 58.7896 37.5711C58.7696 37.5441 58.7395 37.5311 58.7195 37.5071C58.6716 37.448 58.6181 37.3937 58.5596 37.3451L58.5695 37.3311L53.0695 32.8311V22.6801C53.0737 22.3345 53.0099 21.9915 52.8815 21.6706C52.7531 21.3497 52.5627 21.0572 52.3213 20.8099C52.0798 20.5626 51.792 20.3653 51.4742 20.2293C51.1565 20.0932 50.8151 20.0211 50.4695 20.0171H29.5295C29.1839 20.0211 28.8425 20.0932 28.5248 20.2293C28.2071 20.3653 27.9192 20.5626 27.6777 20.8099C27.4363 21.0572 27.2459 21.3497 27.1176 21.6706C26.9892 21.9915 26.9253 22.3345 26.9296 22.6801V32.8261L21.4296 37.3261L21.4395 37.3401C21.381 37.3887 21.3275 37.443 21.2795 37.5021C21.2595 37.5271 21.2295 37.5391 21.2095 37.5661C21.1885 37.6027 21.1718 37.6417 21.1595 37.6821C21.1167 37.7532 21.0831 37.8295 21.0596 37.9091C21.0334 37.9865 21.0165 38.0667 21.0095 38.1481C21.0095 38.1931 20.9895 38.2311 20.9895 38.2771V55.4291C20.9786 56.3583 21.3368 57.2539 21.9855 57.9193C22.6342 58.5846 23.5203 58.9654 24.4495 58.9781H26.9296C27.2464 58.969 27.5472 58.8367 27.7681 58.6094C27.989 58.3821 28.1127 58.0776 28.1127 57.7606C28.1127 57.4436 27.989 57.1391 27.7681 56.9118C27.5472 56.6844 27.2464 56.5522 26.9296 56.5431H24.4495C24.3047 56.5418 24.1615 56.5119 24.0283 56.4552C23.8951 56.3984 23.7745 56.3159 23.6732 56.2124C23.5719 56.1089 23.4921 55.9865 23.4382 55.8521C23.3844 55.7176 23.3576 55.5739 23.3595 55.4291V40.6581L36.9296 50.6581C36.9696 50.6851 36.9995 50.7101 37.0396 50.7341C37.9037 51.35 38.9384 51.681 39.9995 51.681C41.0607 51.681 42.0953 51.35 42.9595 50.7341C42.9895 50.7101 43.0295 50.6851 43.0695 50.6581L56.6395 40.6581V55.4341C56.6414 55.5789 56.6146 55.7226 56.5608 55.857C56.507 55.9915 56.4271 56.1139 56.3258 56.2174C56.2245 56.3209 56.1039 56.4034 55.9707 56.4602C55.8375 56.5169 55.6944 56.5468 55.5496 56.5481H53.0695C52.7526 56.5572 52.4519 56.6894 52.231 56.9167C52.01 57.1441 51.8864 57.4486 51.8864 57.7656C51.8864 58.0826 52.01 58.3871 52.231 58.6144C52.4519 58.8417 52.7526 58.974 53.0695 58.9831H55.5496C56.4787 58.9704 57.3649 58.5896 58.0135 57.9243C58.6622 57.2589 59.0205 56.3633 59.0095 55.4341V54.1121ZM26.9296 40.2871L24.1395 38.2311L26.9296 35.9451V40.2871ZM50.6995 42.0391L41.7395 48.6391C41.2426 49.0274 40.6301 49.2383 39.9995 49.2383C39.3689 49.2383 38.7564 49.0274 38.2595 48.6391L29.2996 42.0391V22.6801C29.3016 22.6199 29.3265 22.5628 29.3693 22.5204C29.412 22.478 29.4694 22.4536 29.5295 22.4521H50.4695C50.5297 22.4536 50.587 22.478 50.6298 22.5204C50.6725 22.5628 50.6974 22.6199 50.6995 22.6801V42.0391ZM53.0695 40.2871V35.9451L55.8595 38.2311L53.0695 40.2871Z" fill="#131010"/>
</g>
<defs>
<clipPath id="clip0_44_340">
<rect width="80" height="80" fill="white"/>
</clipPath>
</defs>
</svg>
