<svg width="80" height="80" viewBox="0 0 80 80" fill="none" xmlns="http://www.w3.org/2000/svg">
<g clip-path="url(#clip0_44_346)">
<path d="M40 80C62.0914 80 80 62.0914 80 40C80 17.9086 62.0914 0 40 0C17.9086 0 0 17.9086 0 40C0 62.0914 17.9086 80 40 80Z" fill="white"/>
<path fill-rule="evenodd" clip-rule="evenodd" d="M59.8402 58.366C59.8755 58.2977 59.9057 58.2268 59.9303 58.154C59.9571 58.0774 59.9738 57.9978 59.9802 57.917C59.9952 57.8722 60.0053 57.8259 60.0103 57.779C60.0103 57.743 59.9902 57.711 59.9902 57.679C59.9902 57.647 60.0002 57.612 59.9902 57.579C59.2702 53.367 57.2703 50.852 54.6503 50.852H54.1902C52.0302 50.858 50.4503 50.874 48.8103 48.552C48.7204 48.4166 48.6041 48.3005 48.4686 48.2108C48.3331 48.121 48.181 48.0592 48.0212 48.0292C47.8615 47.9992 47.6973 48.0015 47.5385 48.036C47.3796 48.0705 47.2291 48.1364 47.0962 48.2299C46.9632 48.3235 46.8504 48.4427 46.7643 48.5806C46.6782 48.7184 46.6206 48.8722 46.5948 49.0327C46.5691 49.1932 46.5758 49.3573 46.6145 49.5152C46.6532 49.6731 46.7231 49.8216 46.8202 49.952C49.1902 53.316 51.9502 53.299 54.2002 53.286H54.6503C55.8203 53.286 56.7202 54.779 57.2502 56.564H35.6202C35.4573 56.5593 35.2951 56.5874 35.1432 56.6465C34.9913 56.7057 34.8528 56.7947 34.7358 56.9083C34.6189 57.0219 34.526 57.1578 34.4625 57.3079C34.3991 57.4581 34.3663 57.6194 34.3663 57.7825C34.3663 57.9455 34.3991 58.1069 34.4625 58.257C34.526 58.4072 34.6189 58.5431 34.7358 58.6567C34.8528 58.7703 34.9913 58.8593 35.1432 58.9184C35.2951 58.9776 35.4573 59.0056 35.6202 59.001H58.7903C58.8574 59.0014 58.9243 58.9954 58.9902 58.983C59.0349 58.9705 59.0784 58.9541 59.1202 58.934C59.1999 58.9126 59.277 58.8828 59.3502 58.845C59.4173 58.8088 59.4809 58.7667 59.5403 58.719C59.6019 58.6705 59.6588 58.6162 59.7102 58.557C59.7589 58.4971 59.8023 58.4332 59.8402 58.366ZM32.1803 48.555C30.5803 50.872 28.8702 50.855 26.7302 50.847H26.2803C23.6903 50.847 21.7203 53.363 21.0103 57.578C21.0003 57.614 21.0203 57.646 21.0103 57.678C21.0003 57.71 20.9902 57.742 20.9902 57.778C20.9952 57.8246 21.0053 57.8705 21.0203 57.915C21.0268 57.9971 21.0435 58.0781 21.0702 58.156C21.1169 58.3023 21.1917 58.4382 21.2903 58.556C21.342 58.6143 21.3988 58.6679 21.4602 58.716C21.5191 58.7647 21.5828 58.8072 21.6503 58.843C21.7234 58.8805 21.8006 58.9097 21.8802 58.93C21.9218 58.9513 21.9653 58.9683 22.0103 58.981C22.0763 58.9921 22.1432 58.9978 22.2102 58.998H28.3103C28.4733 59.0026 28.6354 58.9746 28.7874 58.9154C28.9393 58.8563 29.0778 58.7673 29.1947 58.6537C29.3116 58.5401 29.4046 58.4042 29.468 58.254C29.5315 58.1038 29.5642 57.9425 29.5642 57.7795C29.5642 57.6165 29.5315 57.4551 29.468 57.3049C29.4046 57.1548 29.3116 57.0189 29.1947 56.9052C29.0778 56.7916 28.9393 56.7026 28.7874 56.6435C28.6354 56.5844 28.4733 56.5563 28.3103 56.561H23.7402C24.2602 54.776 25.1403 53.283 26.2803 53.283H26.7202C28.9802 53.306 31.8502 53.316 34.1902 49.942C34.3741 49.6754 34.4446 49.3467 34.3862 49.0282C34.3278 48.7097 34.1453 48.4274 33.8788 48.2435C33.6122 48.0595 33.2835 47.989 32.965 48.0475C32.6464 48.1059 32.3642 48.2884 32.1803 48.555ZM29.5303 41.937H31.9702C32.1588 41.932 32.3437 41.8834 32.5103 41.795C34.2103 46.263 37.5202 49.249 40.5002 49.249C41.0472 49.246 41.5904 49.158 42.1102 48.988C42.4179 48.8885 42.6735 48.6709 42.8207 48.3831C42.9679 48.0952 42.9947 47.7606 42.8953 47.453C42.7958 47.1453 42.5782 46.8898 42.2903 46.7426C42.0024 46.5953 41.6679 46.5685 41.3602 46.668C41.0826 46.7595 40.7926 46.8081 40.5002 46.812C37.8002 46.812 33.7903 42.06 33.7903 35.496C33.7903 30.066 36.0502 27.313 40.5002 27.313C41.4689 27.2427 42.4404 27.4059 43.333 27.7887C44.2256 28.1715 45.0134 28.7628 45.6302 29.513C45.8265 29.7702 46.1169 29.939 46.4376 29.9821C46.7583 30.0253 47.083 29.9392 47.3402 29.743C47.5975 29.5467 47.7663 29.2563 47.8094 28.9356C47.8526 28.6149 47.7665 28.2902 47.5702 28.033C46.726 26.9843 45.6449 26.1512 44.4158 25.6021C43.1866 25.0531 41.8446 24.8039 40.5002 24.875C35.7202 24.875 32.6203 27.5 31.6703 32.187H30.7502C30.7502 25.535 33.8502 22.438 40.5002 22.438C47.1502 22.438 50.2502 25.538 50.2502 32.187H49.0303C48.9177 32.1938 48.8065 32.2164 48.7002 32.254C48.5252 32.1866 48.3362 32.1639 48.1503 32.188C47.8304 32.2292 47.5396 32.3949 47.3412 32.6492C47.1427 32.9034 47.0525 33.2256 47.0902 33.546C47.1726 34.1923 47.2126 34.8434 47.2102 35.495C47.2135 37.1402 46.9502 38.7751 46.4303 40.336C46.3299 40.6434 46.3557 40.978 46.502 41.2664C46.6482 41.5548 46.9029 41.7733 47.2102 41.874C47.3326 41.9154 47.461 41.9364 47.5902 41.936C47.6406 41.9312 47.6907 41.9235 47.7402 41.913C47.7765 41.9225 47.8132 41.9302 47.8502 41.936H50.2502C50.2506 42.0963 50.2194 42.255 50.1582 42.4032C50.097 42.5513 50.0071 42.6859 49.8937 42.7992C49.7803 42.9125 49.6457 43.0022 49.4976 43.0633C49.3494 43.1243 49.1905 43.1555 49.0303 43.155H44.1603V41.936C44.1603 41.6124 44.0317 41.3021 43.8029 41.0733C43.5741 40.8445 43.2638 40.716 42.9402 40.716C42.6166 40.716 42.3063 40.8445 42.0775 41.0733C41.8487 41.3021 41.7202 41.6124 41.7202 41.936V44.373C41.7197 44.5333 41.7509 44.6921 41.812 44.8403C41.8731 44.9885 41.963 45.1232 42.0764 45.2365C42.1898 45.3498 42.3245 45.4395 42.4728 45.5005C42.621 45.5616 42.7799 45.5926 42.9402 45.592H49.0303C50.0002 45.5917 50.9304 45.2065 51.6166 44.5211C52.3028 43.8356 52.6889 42.9059 52.6902 41.936V41.712C53.4018 41.4624 54.0186 40.9983 54.4556 40.3837C54.8925 39.7691 55.1283 39.0341 55.1302 38.28V35.843C55.1281 35.0817 54.8879 34.3403 54.4431 33.7225C53.9984 33.1047 53.3715 32.6416 52.6503 32.398C52.6688 32.3287 52.6821 32.2582 52.6902 32.187C52.6902 24.214 48.4802 20.001 40.5002 20.001C32.5202 20.001 28.3103 24.214 28.3103 32.187C28.3183 32.2582 28.3316 32.3287 28.3502 32.398C27.629 32.6416 27.0021 33.1047 26.5574 33.7225C26.1126 34.3403 25.8724 35.0817 25.8702 35.843V38.28C25.8713 39.2501 26.2574 40.1801 26.9436 40.8658C27.6298 41.5514 28.5602 41.9367 29.5303 41.937ZM52.6902 38.281C52.6906 38.4413 52.6593 38.6 52.5981 38.7482C52.537 38.8963 52.4471 39.0309 52.3337 39.1442C52.2204 39.2575 52.0857 39.3472 51.9375 39.4083C51.7893 39.4693 51.6305 39.5005 51.4702 39.5H49.1902C49.4903 38.1878 49.6413 36.846 49.6403 35.5C49.6403 35.2 49.6302 34.916 49.6202 34.629H51.4702C51.6305 34.6284 51.7893 34.6596 51.9375 34.7207C52.0857 34.7817 52.2204 34.8715 52.3337 34.9848C52.4471 35.0981 52.537 35.2326 52.5981 35.3808C52.6593 35.5289 52.6906 35.6877 52.6902 35.848V38.285V38.281ZM28.3103 35.844C28.3099 35.6837 28.3412 35.5249 28.4023 35.3768C28.4635 35.2286 28.5534 35.0941 28.6667 34.9808C28.7801 34.8675 28.9148 34.7777 29.063 34.7167C29.2112 34.6556 29.37 34.6244 29.5303 34.625H31.3802C31.3702 34.912 31.3602 35.197 31.3602 35.496C31.3591 36.842 31.5101 38.1838 31.8103 39.496H29.5303C29.37 39.4965 29.2112 39.4653 29.063 39.4043C28.9148 39.3432 28.7801 39.2535 28.6667 39.1402C28.5534 39.0269 28.4635 38.8923 28.4023 38.7442C28.3412 38.596 28.3099 38.4373 28.3103 38.277V35.84V35.844Z" fill="#131010"/>
</g>
<defs>
<clipPath id="clip0_44_346">
<rect width="80" height="80" fill="white"/>
</clipPath>
</defs>
</svg>
