<svg width="80" height="80" viewBox="0 0 80 80" fill="none" xmlns="http://www.w3.org/2000/svg">
<g clip-path="url(#clip0_44_352)">
<path d="M40 80C62.0914 80 80 62.0914 80 40C80 17.9086 62.0914 0 40 0C17.9086 0 0 17.9086 0 40C0 62.0914 17.9086 80 40 80Z" fill="white"/>
<path fill-rule="evenodd" clip-rule="evenodd" d="M43.2002 33.393V32.015H44.1503V27.673H47.3302C47.891 27.666 48.4509 27.7193 49.0002 27.832C49.4346 27.9166 49.8487 28.0836 50.2202 28.324C50.5385 28.5365 50.794 28.8303 50.9602 29.175C51.1373 29.5616 51.2229 29.9839 51.2102 30.409C51.2242 30.8856 51.1319 31.3594 50.9402 31.796C50.77 32.1668 50.5044 32.4857 50.1703 32.72C49.798 32.9705 49.38 33.1451 48.9402 33.234C48.4075 33.3453 47.8643 33.3986 47.3202 33.393H46.4003V34.205H48.8302V35.583H46.4003V37.125H44.1503V35.583H43.2002V34.205H44.1503V33.393H43.2002ZM46.4003 32.015H47.2703C47.5857 32.0266 47.9006 31.9815 48.2002 31.882C48.4117 31.8107 48.6012 31.686 48.7502 31.52C48.878 31.369 48.9642 31.1874 49.0002 30.993C49.0493 30.7873 49.0728 30.5764 49.0702 30.365C49.0783 30.1572 49.0335 29.9508 48.9402 29.765C48.8563 29.6015 48.7325 29.4618 48.5802 29.359C48.3995 29.2454 48.1995 29.1658 47.9902 29.124C47.7405 29.0704 47.4856 29.0449 47.2302 29.048H46.4003V32.012V32.015ZM47.0002 43.747C44.5272 43.7544 42.112 42.9987 40.0844 41.5829C38.0567 40.1671 36.5153 38.1602 35.6703 35.836C35.5125 35.403 35.3823 34.9604 35.2803 34.511C35.2186 34.2065 35.2783 33.8899 35.4469 33.6289C35.6155 33.3679 35.8795 33.1832 36.1825 33.1143C36.4854 33.0454 36.8033 33.0976 37.0682 33.2599C37.3332 33.4222 37.5241 33.6818 37.6002 33.983C37.6794 34.3399 37.7796 34.6918 37.9003 35.037C38.4596 36.7179 39.4724 38.2117 40.8269 39.3534C42.1814 40.4952 43.8251 41.2405 45.5764 41.5073C47.3278 41.7741 49.1188 41.5518 50.7518 40.8651C52.3849 40.1784 53.7964 39.054 54.8308 37.6158C55.8652 36.1776 56.4823 34.4816 56.6139 32.715C56.7454 30.9483 56.3863 29.1797 55.5763 27.6041C54.7663 26.0286 53.5368 24.7075 52.0234 23.7865C50.5101 22.8656 48.7718 22.3805 47.0002 22.385C45.9041 22.3836 44.8156 22.5668 43.7803 22.927C43.4841 23.0258 43.1609 23.004 42.8807 22.8662C42.6006 22.7285 42.386 22.4859 42.2834 22.1911C42.1809 21.8962 42.1986 21.5728 42.3328 21.2909C42.4669 21.009 42.7067 20.7913 43.0002 20.685C44.2863 20.2375 45.6386 20.01 47.0002 20.012C48.5679 19.9976 50.1229 20.2939 51.5753 20.8839C53.0278 21.4738 54.3489 22.3457 55.4625 23.4491C56.5761 24.5525 57.4601 25.8657 58.0634 27.3126C58.6666 28.7596 58.9772 30.3118 58.9772 31.8795C58.9772 33.4472 58.6666 34.9994 58.0634 36.4463C57.4601 37.8933 56.5761 39.2064 55.4625 40.3099C54.3489 41.4133 53.0278 42.2852 51.5753 42.8751C50.1229 43.465 48.5679 43.7614 47.0002 43.747ZM40.0002 27.133H38.8103C38.4955 27.133 38.1936 27.0079 37.9709 26.7853C37.7483 26.5627 37.6233 26.2608 37.6233 25.946C37.6233 25.6312 37.7483 25.3292 37.9709 25.1066C38.1936 24.884 38.4955 24.759 38.8103 24.759H40.0002C40.3151 24.759 40.617 24.884 40.8396 25.1066C41.0622 25.3292 41.1873 25.6312 41.1873 25.946C41.1873 26.2608 41.0622 26.5627 40.8396 26.7853C40.617 27.0079 40.3151 27.133 40.0002 27.133ZM36.4402 24.759C36.284 24.7595 36.1293 24.7292 35.9849 24.6698C35.8404 24.6103 35.7092 24.523 35.5986 24.4127C35.4881 24.3024 35.4004 24.1714 35.3406 24.0271C35.2808 23.8828 35.2501 23.7281 35.2502 23.572V22.385C35.2502 22.0694 35.3756 21.7667 35.5988 21.5435C35.8219 21.3204 36.1246 21.195 36.4402 21.195C36.7558 21.195 37.0586 21.3204 37.2817 21.5435C37.5049 21.7667 37.6302 22.0694 37.6302 22.385V23.572C37.6287 23.8868 37.5027 24.1883 37.2798 24.4106C37.0569 24.633 36.755 24.7582 36.4402 24.759ZM34.0603 27.133H32.8702C32.5554 27.133 32.2535 27.0079 32.0309 26.7853C31.8083 26.5627 31.6832 26.2608 31.6832 25.946C31.6832 25.6312 31.8083 25.3292 32.0309 25.1066C32.2535 24.884 32.5554 24.759 32.8702 24.759H34.0603C34.3751 24.759 34.6769 24.884 34.8995 25.1066C35.1221 25.3292 35.2472 25.6312 35.2472 25.946C35.2472 26.2608 35.1221 26.5627 34.8995 26.7853C34.6769 27.0079 34.3751 27.133 34.0603 27.133ZM36.4402 27.133C36.7549 27.1335 37.0567 27.2585 37.2797 27.4807C37.5026 27.7029 37.6287 28.0042 37.6302 28.319V29.506C37.6302 29.8216 37.5049 30.1243 37.2817 30.3474C37.0586 30.5706 36.7558 30.696 36.4402 30.696C36.1246 30.696 35.8219 30.5706 35.5988 30.3474C35.3756 30.1243 35.2502 29.8216 35.2502 29.506V28.319C35.2502 28.1629 35.2811 28.0083 35.3409 27.8642C35.4008 27.72 35.4884 27.5891 35.599 27.4789C35.7096 27.3687 35.8408 27.2815 35.9851 27.2221C36.1295 27.1628 36.2841 27.1325 36.4402 27.133ZM35.6902 43.07C36.2261 43.3853 36.6842 43.8174 37.0303 44.334C37.6703 45.17 38.2302 45.895 40.5802 45.571C44.4902 45.035 46.4103 46.896 46.9303 48.841C48.5414 48.5647 50.1342 48.1914 51.7002 47.723C52.4102 47.523 53.1202 47.323 53.8302 47.148C56.7802 46.4 58.0303 47.712 58.5603 48.948C59.2703 50.629 59.1502 51.792 58.2002 52.399C55.2502 54.274 44.9503 57.985 42.0603 57.985C39.3503 57.985 31.5602 55.585 28.1202 54.485V56.8C28.1204 56.9561 28.0897 57.1108 28.0299 57.2551C27.9701 57.3993 27.8824 57.5304 27.7719 57.6407C27.6613 57.751 27.53 57.8383 27.3856 57.8977C27.2412 57.9572 27.0865 57.9875 26.9303 57.987H22.1803C22.0241 57.9875 21.8694 57.9572 21.725 57.8977C21.5806 57.8383 21.4492 57.751 21.3386 57.6407C21.2281 57.5304 21.1404 57.3993 21.0806 57.2551C21.0208 57.1108 20.9901 56.9561 20.9902 56.8V40.187C20.9901 40.0308 21.0208 39.8762 21.0806 39.7319C21.1404 39.5876 21.2281 39.4566 21.3386 39.3463C21.4492 39.236 21.5806 39.1486 21.725 39.0892C21.8694 39.0298 22.0241 38.9995 22.1803 39H26.9303C27.0865 38.9995 27.2412 39.0298 27.3856 39.0892C27.53 39.1486 27.6613 39.236 27.7719 39.3463C27.8824 39.4566 27.9701 39.5876 28.0299 39.7319C28.0897 39.8762 28.1204 40.0308 28.1202 40.187V43.987C30.2402 42.888 33.5102 41.939 35.6902 43.07ZM25.7402 41.37H23.3602V55.611H25.7402V41.373V41.37ZM28.1202 46.602V51.983C31.8602 53.197 39.7603 55.61 42.0603 55.61C44.2203 55.61 53.5002 52.383 56.6102 50.583C56.5404 50.3411 56.457 50.1034 56.3602 49.871C56.2102 49.521 56.0103 49.044 54.4203 49.445C53.7303 49.62 53.0402 49.813 52.3502 50.006C50.5012 50.566 48.6125 50.9852 46.7002 51.26C46.5195 51.5503 46.2493 51.7739 45.9303 51.897C45.7003 51.983 45.4202 52.097 45.1202 52.225C44.0028 52.7792 42.7924 53.1216 41.5503 53.235C41.294 53.2364 41.0385 53.2048 40.7903 53.141C39.8803 52.897 35.2002 51.581 33.3602 51.066C33.2096 51.0248 33.0686 50.9541 32.9456 50.8579C32.8225 50.7617 32.7199 50.642 32.6436 50.5057C32.5672 50.3695 32.5188 50.2194 32.5011 50.0643C32.4834 49.9091 32.4967 49.7519 32.5403 49.602C32.6262 49.298 32.8293 49.0407 33.105 48.8866C33.3807 48.7324 33.7063 48.6941 34.0103 48.78C35.8403 49.293 40.5103 50.606 41.4103 50.848C42.3802 50.7573 43.3237 50.482 44.1902 50.037C44.3602 49.964 44.5302 49.894 44.6902 49.831C44.669 49.4201 44.5146 49.0273 44.2502 48.712C43.6302 47.976 42.4703 47.704 40.9003 47.92C37.1803 48.434 35.9502 46.834 35.1302 45.776C34.9781 45.548 34.7927 45.3441 34.5802 45.171C33.3002 44.503 30.4502 45.284 28.6002 46.438C28.4542 46.5277 28.2904 46.5847 28.1202 46.605V46.602Z" fill="#131010"/>
</g>
<defs>
<clipPath id="clip0_44_352">
<rect width="80" height="80" fill="white"/>
</clipPath>
</defs>
</svg>
