<svg width="80" height="80" viewBox="0 0 80 80" fill="none" xmlns="http://www.w3.org/2000/svg">
<g clip-path="url(#clip0_44_358)">
<path d="M40 80C62.0914 80 80 62.0914 80 40C80 17.9086 62.0914 0 40 0C17.9086 0 0 17.9086 0 40C0 62.0914 17.9086 80 40 80Z" fill="white"/>
<path fill-rule="evenodd" clip-rule="evenodd" d="M58.4803 42.8429L56.1404 41.2739C56.1604 41.0049 56.1604 40.733 56.1604 40.459C56.1604 40.185 56.1504 39.911 56.1404 39.64L58.4703 38.0609C58.6603 37.935 58.8079 37.7545 58.8935 37.5432C58.9792 37.3319 58.9989 37.0997 58.9503 36.877C58.6572 35.4249 58.1872 34.0144 57.5504 32.6769C57.4557 32.4726 57.3024 32.301 57.1102 32.1837C56.918 32.0664 56.6953 32.0087 56.4703 32.0179L53.6203 32.1039C53.3164 31.6418 52.9858 31.1977 52.6303 30.7739L53.5703 28.1599C53.6466 27.9446 53.6579 27.7116 53.6028 27.4898C53.5476 27.2681 53.4286 27.0675 53.2604 26.9129C52.1493 25.9106 50.9242 25.0423 49.6103 24.3259C49.4153 24.2184 49.1932 24.1701 48.9712 24.187C48.7491 24.2039 48.5368 24.2852 48.3603 24.4209L46.1003 26.1339C45.57 25.9332 45.0292 25.7612 44.4803 25.6189L43.6704 22.9569C43.6063 22.7412 43.4801 22.5491 43.3076 22.4045C43.1351 22.26 42.9239 22.1694 42.7003 22.144C41.9403 22.055 41.1703 22.0289 40.4503 22.0129C39.6981 22.0161 38.9468 22.0638 38.2003 22.1559C37.9763 22.1824 37.7651 22.2739 37.5926 22.4193C37.4202 22.5648 37.2942 22.7576 37.2303 22.9739L36.4403 25.6409C35.8914 25.7861 35.3506 25.9603 34.8203 26.1629L32.5504 24.463C32.3731 24.3283 32.1604 24.2483 31.9383 24.2329C31.7163 24.2174 31.4946 24.2672 31.3004 24.3759C29.9924 25.0993 28.774 25.9739 27.6704 26.9819C27.5035 27.1378 27.386 27.3393 27.3326 27.5614C27.2793 27.7834 27.2924 28.0163 27.3703 28.2309L28.3203 30.8399C27.9704 31.2678 27.6433 31.7137 27.3403 32.1759L24.4803 32.1059C24.2586 32.1106 24.0423 32.175 23.854 32.2922C23.6657 32.4094 23.5125 32.5751 23.4104 32.7719C22.7799 34.1122 22.3164 35.5247 22.0304 36.9779C21.9854 37.2018 22.0079 37.4339 22.0952 37.6449C22.1824 37.8559 22.3305 38.0362 22.5204 38.1629L24.8603 39.7289C24.8503 39.9989 24.8403 40.2729 24.8403 40.5469C24.8403 40.8209 24.8503 41.0929 24.8703 41.3649L22.5304 42.9449C22.3419 43.0731 22.1956 43.2543 22.1102 43.4656C22.0248 43.6769 22.004 43.9088 22.0504 44.1319C22.3425 45.5842 22.8126 46.9949 23.4503 48.3319C23.5476 48.5342 23.7014 48.7041 23.893 48.821C24.0847 48.9379 24.306 48.9969 24.5304 48.9909L27.3803 48.9049C27.6881 49.3666 28.022 49.8104 28.3803 50.2339L27.4403 52.8479C27.3616 53.063 27.349 53.2967 27.4043 53.5189C27.4595 53.7412 27.5801 53.9418 27.7503 54.0949C28.8564 55.0988 30.0784 55.967 31.3904 56.6809C31.586 56.787 31.8082 56.8341 32.0301 56.8163C32.252 56.7986 32.464 56.7168 32.6404 56.5809L34.9004 54.868C35.4309 55.0679 35.9716 55.2394 36.5204 55.3819L37.3303 58.0459C37.3979 58.2615 37.5264 58.4529 37.7003 58.5971C37.8742 58.7414 38.0861 58.8323 38.3104 58.8589C39.0373 58.9447 39.7684 58.9885 40.5003 58.9899H40.5504C41.3025 58.9864 42.0538 58.9386 42.8004 58.8469C43.0244 58.8205 43.2356 58.7289 43.4081 58.5835C43.5805 58.4381 43.7065 58.2453 43.7704 58.0289L44.5604 55.3609C45.1097 55.2168 45.6505 55.0422 46.1804 54.838L48.4503 56.5379C48.6282 56.6712 48.8408 56.7503 49.0625 56.7657C49.2842 56.7811 49.5057 56.7322 49.7003 56.6249C51.0103 55.9048 52.2291 55.0299 53.3303 54.019C53.5005 53.8656 53.621 53.6647 53.6762 53.4424C53.7315 53.22 53.719 52.9862 53.6404 52.7709L52.6804 50.1609C53.0304 49.7349 53.3604 49.2889 53.6704 48.8269L56.5204 48.8979C56.7469 48.9107 56.9719 48.8537 57.165 48.7346C57.3581 48.6156 57.51 48.4401 57.6003 48.2319C58.2275 46.8903 58.6876 45.4767 58.9703 44.0229C59.0143 43.7999 58.9914 43.5687 58.9041 43.3587C58.8169 43.1487 58.6694 42.9692 58.4803 42.8429ZM55.8104 46.5699L53.0604 46.5029C52.8563 46.5037 52.6557 46.5561 52.4774 46.6552C52.299 46.7544 52.1487 46.897 52.0404 47.0699C51.6014 47.8125 51.0888 48.509 50.5104 49.1489C50.3679 49.3038 50.2712 49.4951 50.2306 49.7015C50.19 49.908 50.2072 50.1217 50.2804 50.3189L51.1903 52.8189C50.5728 53.3365 49.9177 53.8075 49.2303 54.2279L47.0504 52.5929C46.8873 52.4717 46.6953 52.3954 46.4935 52.3715C46.2917 52.3476 46.0872 52.3771 45.9004 52.4569C45.0947 52.8034 44.2575 53.0713 43.4004 53.2569C43.1986 53.3013 43.0124 53.3989 42.8612 53.5396C42.7099 53.6803 42.5992 53.8589 42.5404 54.0569L41.7704 56.6209C41.3604 56.6539 40.9504 56.6709 40.5504 56.6719C40.1204 56.6719 39.7403 56.6589 39.3203 56.6279L38.5404 54.0689C38.4827 53.8703 38.3722 53.691 38.2208 53.5501C38.0694 53.4093 37.8827 53.3121 37.6804 53.269C36.8204 53.0865 35.9799 52.8219 35.1704 52.4789C34.9833 52.3983 34.7781 52.3691 34.5759 52.3942C34.3738 52.4193 34.182 52.498 34.0204 52.6219L31.8503 54.2669C31.1599 53.8497 30.5014 53.3817 29.8803 52.8669L30.7804 50.3599C30.8544 50.1616 30.871 49.9464 30.8286 49.739C30.7862 49.5316 30.6863 49.3403 30.5404 49.187C29.963 48.548 29.4474 47.856 29.0003 47.1199C28.8957 46.9417 28.7446 46.7953 28.5632 46.6963C28.3818 46.5973 28.1768 46.5495 27.9703 46.558L25.2303 46.6409C24.9307 45.9105 24.6801 45.1608 24.4803 44.3969L26.7203 42.8829C26.8954 42.7672 27.0349 42.6052 27.1231 42.4148C27.2114 42.2245 27.2451 42.0133 27.2203 41.8049C27.1803 41.3829 27.1604 40.9569 27.1604 40.5239C27.1501 40.0954 27.1701 39.6667 27.2203 39.2409C27.239 39.0324 27.2016 38.8227 27.1119 38.6335C27.0222 38.4443 26.8835 38.2825 26.7103 38.1649L24.4603 36.6649C24.6526 35.8998 24.8999 35.1495 25.2003 34.42L27.9403 34.4869C28.1444 34.4863 28.345 34.4339 28.5234 34.3348C28.7018 34.2356 28.852 34.0929 28.9603 33.92C29.4069 33.1784 29.9226 32.4806 30.5003 31.8359C30.6406 31.6798 30.7361 31.4886 30.7766 31.2826C30.8171 31.0767 30.801 30.8636 30.7303 30.6659L29.8104 28.1659C30.4311 27.6476 31.0896 27.1763 31.7804 26.756L33.9503 28.39C34.1144 28.513 34.3082 28.5904 34.5119 28.6145C34.7156 28.6385 34.922 28.6083 35.1103 28.5269C35.916 28.1806 36.7532 27.9127 37.6103 27.7269C37.8122 27.6829 37.9986 27.5854 38.1499 27.4447C38.3012 27.3039 38.4118 27.1251 38.4703 26.9269L39.2303 24.3649C39.6403 24.3336 40.0503 24.3173 40.4603 24.3159C40.8675 24.3048 41.2751 24.3195 41.6804 24.3599L42.4603 26.9179C42.5204 27.117 42.6328 27.2962 42.7859 27.4369C42.9389 27.5776 43.1269 27.6747 43.3303 27.7179C44.1868 27.9013 45.0239 28.1658 45.8303 28.5079C46.0176 28.5876 46.2226 28.6164 46.4245 28.5912C46.6265 28.5661 46.8183 28.4881 46.9803 28.3649L49.1504 26.7189C49.8405 27.1365 50.499 27.6045 51.1203 28.1189L50.2303 30.6189C50.157 30.8155 50.1398 31.0286 50.1804 31.2345C50.221 31.4404 50.3178 31.6309 50.4603 31.7849C51.0408 32.4252 51.5566 33.1213 52.0003 33.8629C52.1076 34.0387 52.2592 34.1832 52.44 34.2818C52.6208 34.3805 52.8245 34.4298 53.0304 34.4249L55.7704 34.3429C56.0788 35.0694 56.3295 35.8191 56.5204 36.5849L54.2804 38.0979C54.1088 38.2149 53.9719 38.3759 53.8839 38.564C53.7959 38.752 53.7602 38.9603 53.7804 39.1669C53.8204 39.5919 53.8503 40.021 53.8503 40.459C53.8503 40.897 53.8304 41.3249 53.7904 41.7489C53.7696 41.9566 53.8062 42.1659 53.8961 42.3542C53.986 42.5426 54.1258 42.7026 54.3004 42.8169L56.5404 44.3169C56.3522 45.0847 56.1082 45.8377 55.8104 46.5699ZM40.5003 34.7209C39.3574 34.7211 38.2402 35.0602 37.29 35.6954C36.3398 36.3305 35.5992 37.2331 35.162 38.2891C34.7247 39.3451 34.6104 40.507 34.8335 41.628C35.0566 42.7489 35.6071 43.7786 36.4154 44.5867C37.2236 45.3948 38.2533 45.9451 39.3742 46.168C40.4952 46.3909 41.6572 46.2764 42.7131 45.8389C43.769 45.4015 44.6715 44.6608 45.3065 43.7105C45.9415 42.7601 46.2804 41.6429 46.2804 40.4999C46.2788 38.9676 45.6692 37.4984 44.5855 36.415C43.5019 35.3315 42.0327 34.7223 40.5003 34.7209ZM40.5003 43.9669C39.8148 43.9664 39.1448 43.7625 38.575 43.3812C38.0053 42.9999 37.5614 42.4582 37.2994 41.8246C37.0375 41.1911 36.9693 40.4941 37.1034 39.8217C37.2375 39.1494 37.5678 38.5319 38.0528 38.0473C38.5378 37.5628 39.1556 37.2329 39.8281 37.0993C40.5006 36.9658 41.1974 37.0347 41.8308 37.2971C42.4641 37.5596 43.0054 38.004 43.3862 38.5741C43.767 39.1442 43.9703 39.8144 43.9703 40.4999C43.9682 41.4193 43.6019 42.3004 42.9515 42.9502C42.3011 43.6 41.4197 43.9656 40.5003 43.9669ZM50.2103 36.7579C50.0939 36.4799 49.8737 36.2583 49.5964 36.1401C49.3192 36.0219 49.0068 36.0164 48.7256 36.1248C48.4443 36.2333 48.2165 36.4471 48.0904 36.7209C47.9643 36.9946 47.95 37.3068 48.0504 37.5909C48.2809 38.1771 48.4387 38.7894 48.5204 39.4139C48.5684 39.7739 48.5917 40.1368 48.5903 40.4999C48.5884 42.2304 48.0311 43.9145 47.0003 45.3044C45.9696 46.6944 44.5199 47.7168 42.8646 48.2211C41.2093 48.7255 39.4358 48.6852 37.8052 48.1061C36.1745 47.527 34.7727 46.4398 33.8062 45.0044C32.8398 43.569 32.3595 41.8613 32.4363 40.1326C32.513 38.4038 33.1426 36.7454 34.2325 35.4013C35.3224 34.0572 36.815 33.0985 38.4906 32.6662C40.1661 32.2339 41.9363 32.3509 43.5404 32.9999C43.8239 33.1127 44.1404 33.1088 44.4211 32.9891C44.7018 32.8693 44.9238 32.6435 45.0387 32.3608C45.1535 32.0781 45.1518 31.7614 45.0342 31.4799C44.9165 31.1984 44.6922 30.9748 44.4104 30.8579C42.3461 30.0204 40.0674 29.8678 37.9099 30.4227C35.7524 30.9776 33.8301 32.2106 32.426 33.9402C31.0219 35.6697 30.2103 37.8044 30.1107 40.0299C30.0111 42.2554 30.6287 44.4541 31.8727 46.3022C33.1166 48.1503 34.9212 49.5501 37.0205 50.2955C39.1198 51.0409 41.4029 51.0925 43.5338 50.4427C45.6646 49.7929 47.5305 48.4761 48.8567 46.6861C50.1828 44.8962 50.8993 42.7277 50.9004 40.4999C50.9 40.0355 50.87 39.5715 50.8104 39.1109C50.7058 38.3053 50.5043 37.5153 50.2103 36.7579Z" fill="#131010"/>
</g>
<defs>
<clipPath id="clip0_44_358">
<rect width="80" height="80" fill="white"/>
</clipPath>
</defs>
</svg>
