<svg width="16" height="18" viewBox="0 0 16 18" fill="none" xmlns="http://www.w3.org/2000/svg">
<g clip-path="url(#clip0_305_287)">
<path d="M15.023 5.38212C10.6118 5.38212 6.22823 5.38212 1.82687 5.38212C1.82285 5.32676 1.81565 5.27331 1.81557 5.21986C1.81471 4.69447 1.81365 2.96909 1.81538 2.4437C1.81673 2.03268 2.05858 1.78941 2.46948 1.78934C6.43489 1.78859 10.4004 1.7887 14.3658 1.78934C14.7746 1.78941 15.021 2.03426 15.0225 2.44156C15.0246 3.01574 15.023 4.78996 15.023 5.38212Z" fill="#131010"/>
<path d="M1.81487 14.4067C6.22767 14.4067 10.6111 14.4067 15.0083 14.4067C15.0134 14.4573 15.0221 14.5046 15.0222 14.552C15.0231 15.0837 15.0243 16.8153 15.0224 17.3469C15.0207 17.7574 14.7787 17.9994 14.3664 17.9994C10.4011 18.0002 6.4358 18.0003 2.47051 17.9994C2.0617 17.9993 1.81637 17.7528 1.81528 17.3456C1.8137 16.7717 1.81487 14.9977 1.81487 14.4067Z" fill="#131010"/>
<path d="M3.59809 14.9924C3.10363 14.9924 2.62329 14.9924 2.12891 14.9924C2.12891 11.5966 2.12891 8.20566 2.12891 4.80322C2.61436 4.80322 3.09916 4.80322 3.59809 4.80322C3.59809 8.1924 3.59809 11.5833 3.59809 14.9924Z" fill="#131010"/>
<path d="M13.2383 4.79712C13.7338 4.79712 14.2142 4.79712 14.7081 4.79712C14.7081 8.19328 14.7081 11.5843 14.7081 14.9864C14.2218 14.9864 13.7369 14.9864 13.2383 14.9864C13.2383 11.5962 13.2383 8.20523 13.2383 4.79712Z" fill="#131010"/>
<path d="M5.39943 14.9924C5.00501 14.9924 4.62473 14.9924 4.23047 14.9924C4.23047 11.5966 4.23047 8.20566 4.23047 4.80322C4.61584 4.80322 5.00059 4.80322 5.39943 4.80322C5.39943 8.19229 5.39943 11.5832 5.39943 14.9924Z" fill="#131010"/>
<path d="M7.20174 14.9923C6.80803 14.9923 6.42775 14.9923 6.0332 14.9923C6.0332 11.597 6.0332 8.2061 6.0332 4.80347C6.41791 4.80347 6.80269 4.80347 7.20174 4.80347C7.20174 8.19219 7.20174 11.5831 7.20174 14.9923Z" fill="#131010"/>
<path d="M9.01201 4.80664C9.01201 8.2031 9.01201 11.5852 9.01201 14.9822C8.61943 14.9822 8.23027 14.9822 7.83008 14.9822C7.83008 11.5946 7.83008 8.20814 7.83008 4.80664C8.216 4.80664 8.60521 4.80664 9.01201 4.80664Z" fill="#131010"/>
<path d="M10.8042 14.9915C10.412 14.9915 10.0318 14.9915 9.63672 14.9915C9.63672 11.5978 9.63672 8.20689 9.63672 4.80371C10.0199 4.80371 10.4046 4.80371 10.8042 4.80371C10.8042 8.19069 10.8042 11.5816 10.8042 14.9915Z" fill="#131010"/>
<path d="M11.4375 4.79663C11.8318 4.79663 12.2121 4.79663 12.6064 4.79663C12.6064 8.19243 12.6064 11.5833 12.6064 14.9858C12.221 14.9858 11.8363 14.9858 11.4375 14.9858C11.4375 11.5964 11.4375 8.20546 11.4375 4.79663Z" fill="#131010"/>
<path d="M5.42383 2.37129C5.42383 1.97319 5.42383 0.392998 5.42383 0C7.41957 0 9.40922 0 11.4091 0C11.4091 0.389132 11.4091 1.97375 11.4091 2.37129C9.41744 2.37129 7.42776 2.37129 5.42383 2.37129Z" fill="#131010"/>
</g>
<defs>
<clipPath id="clip0_305_287">
<rect width="14.1429" height="18" fill="white" transform="translate(0.927734)"/>
</clipPath>
</defs>
</svg>
