<svg width="18" height="16" viewBox="0 0 18 16" fill="none" xmlns="http://www.w3.org/2000/svg">
<g clip-path="url(#clip0_305_302)">
<path d="M12.5992 3.15497C12.6001 2.82267 12.6008 2.49033 12.5961 2.1581C12.5886 1.63246 12.1924 1.23882 11.6922 1.24594C11.1972 1.25303 10.8152 1.64076 10.8083 2.15697C10.8039 2.48961 10.8044 2.8223 10.8052 3.15497H12.5992Z" fill="#131010"/>
<path d="M9.00522 3.15499C9.00537 2.83972 9.00538 2.52643 9.00446 2.21336C9.00279 1.6542 8.62563 1.24807 8.10909 1.24537C7.59725 1.24272 7.20811 1.65183 7.2033 2.20636C7.20061 2.52256 7.20098 2.83875 7.20168 3.15499H9.00522Z" fill="#131010"/>
<path d="M5.40969 3.15491C5.41217 2.77805 5.41681 2.40101 5.38708 2.02672C5.34947 1.55471 4.92132 1.22105 4.46925 1.24702C3.98496 1.27485 3.61648 1.65264 3.60898 2.14182C3.60379 2.47942 3.6056 2.81717 3.60665 3.15491H5.40969Z" fill="#131010"/>
<path d="M17.9948 6.69378C17.9935 6.14426 17.6172 5.74841 17.1075 5.74514C16.588 5.74181 16.2031 6.14067 16.1995 6.70003C16.1963 7.19887 16.1937 7.69771 16.1937 8.19654C16.1937 8.27177 16.1937 8.34057 16.1937 8.42485C15.9975 8.42485 15.8011 8.42485 15.6035 8.42485V10.2377C15.8011 10.2377 15.9975 10.2377 16.1937 10.2377C16.1937 10.3642 16.1937 10.4196 16.1937 10.4948C16.1937 10.9937 16.1962 11.4925 16.2 11.9913C16.2043 12.5398 16.5804 12.9361 17.0906 12.9416C17.6058 12.9471 17.9891 12.5437 17.9939 11.9841C17.9972 11.6047 17.9962 11.2253 17.9962 10.8459C17.9962 9.46181 17.9981 8.07779 17.9948 6.69378Z" fill="#131010"/>
<path fill-rule="evenodd" clip-rule="evenodd" d="M14.2514 5.16931C14.2926 5.21401 14.3377 5.27476 14.3377 5.33809L14.3379 13.4015C14.3379 13.445 14.3019 13.4858 14.2602 13.5262C14.0769 13.7038 13.8992 13.8846 13.7214 14.0652C13.5373 14.2526 13.3532 14.4399 13.1627 14.6237C13.1004 14.6838 12.9949 14.7307 12.9093 14.7309C9.70553 14.7361 6.50174 14.7361 3.29797 14.7306C3.21301 14.7305 3.10913 14.6795 3.0464 14.6188C2.66262 14.2477 2.2847 13.8703 1.91412 13.486C1.85431 13.4239 1.81311 13.3179 1.81067 13.2309C1.80261 12.9424 1.80384 12.6537 1.80505 12.3724C1.80548 12.2723 1.8059 12.1731 1.8059 12.0751C1.72899 12.056 1.65403 12.0401 1.58114 12.0248C1.42844 11.9926 1.28491 11.9623 1.15184 11.9069C0.45292 11.6157 0.0548489 11.0855 0.023187 10.3248C-0.00307847 9.69352 0.00518514 9.06016 0.0174956 8.4281C0.0358774 7.48546 0.677377 6.78343 1.61273 6.65883C1.6489 6.65398 1.68492 6.64816 1.72857 6.64102C1.75179 6.63725 1.77715 6.63315 1.80586 6.62862C1.80586 6.52162 1.80653 6.41457 1.8072 6.30757C1.80884 6.04451 1.81049 5.78151 1.8022 5.51882C1.79705 5.35672 1.84902 5.24411 1.9648 5.13425C2.15525 4.95352 2.34006 4.76689 2.52488 4.58026C2.61199 4.49227 2.69912 4.4043 2.78683 4.31693C2.8165 4.28739 2.84554 4.25654 2.8746 4.22567C2.97713 4.11674 3.07973 4.00772 3.21044 3.95605H3.54936C3.56847 3.96238 3.5871 3.96946 3.5871 3.97793V3.95605H12.6093V3.96532C12.6093 3.96191 12.6184 3.959 12.6281 3.95605H12.9859C13.1332 4.00965 13.2416 4.12777 13.3514 4.2473C13.3866 4.28562 13.4219 4.32408 13.4587 4.36061C13.4742 4.37611 13.4899 4.39159 13.5054 4.40706C13.7587 4.65851 14.009 4.90703 14.2514 5.16931Z" fill="#131010"/>
</g>
<defs>
<clipPath id="clip0_305_302">
<rect width="17.99" height="15.42" fill="white" transform="translate(0.00585938 0.280029)"/>
</clipPath>
</defs>
</svg>
