<svg width="18" height="18" viewBox="0 0 18 18" fill="none" xmlns="http://www.w3.org/2000/svg">
<g clip-path="url(#clip0_305_341)">
<mask id="mask0_305_341" style="mask-type:luminance" maskUnits="userSpaceOnUse" x="0" y="0" width="18" height="18">
<path d="M18 0H0V18H18V0Z" fill="white"/>
</mask>
<g mask="url(#mask0_305_341)">
<path d="M17.691 8.59606C17.4023 6.41109 16.3609 4.6413 14.6138 3.29861C13.559 2.48794 12.365 1.99291 11.0279 1.7876C11.0279 2.25992 11.0387 2.70225 11.0254 3.14386C11.004 3.85864 10.4657 4.39325 9.75503 4.45621C9.40636 4.48713 9.05414 4.53584 8.71649 4.62546C6.39868 5.24086 4.7787 7.21429 4.61795 9.59813C4.58006 10.1604 4.20674 10.6439 3.6664 10.7996C3.5006 10.8474 3.32026 10.8572 3.14604 10.8611C2.75573 10.8698 2.36504 10.8638 1.97266 10.8638C2.38977 14.27 5.55629 17.7704 10.1517 17.5849C14.7682 17.3986 18.3099 13.2823 17.691 8.59606ZM9.80677 13.6153C7.61234 13.6139 5.83579 11.8366 5.83672 9.64343C5.83766 7.43878 7.61645 5.66444 9.82094 5.66917C12.0148 5.67387 13.7868 7.45393 13.7829 9.64911C13.7791 11.8434 12.0014 13.6166 9.80677 13.6153Z" fill="#131010"/>
<path d="M3.25289 10.2493C3.68631 10.2457 3.95518 9.96324 4.01434 9.53524C4.07928 9.06521 4.14259 8.58821 4.27827 8.13577C4.96067 5.85999 7.01774 4.04818 9.67466 3.84259C10.1636 3.80476 10.4168 3.52764 10.4203 3.03336C10.4227 2.69291 10.4207 2.35716 10.4207 2.0166C10.4204 2.0166 10.4211 2.0166 10.4207 2.0166C10.4207 1.642 10.4271 1.28539 10.4179 0.922434C10.4061 0.459107 10.0488 0.13902 9.58756 0.175425C9.30508 0.197697 9.02218 0.220787 8.7415 0.259405C7.04288 0.493129 5.50116 1.11917 4.15138 2.17527C1.79811 4.01648 0.541358 6.44575 0.339988 9.42399C0.308759 9.88607 0.629427 10.2447 1.09084 10.2492C1.81146 10.2561 2.53224 10.2552 3.25289 10.2493Z" fill="#131010"/>
<path d="M9.81897 6.28052C7.95405 6.27837 6.45773 7.76924 6.44925 9.63798C6.44088 11.4922 7.94877 13.0018 9.81118 13.0037C11.663 13.0057 13.169 11.5048 13.1721 9.6543C13.1752 7.78834 11.6788 6.28272 9.81897 6.28052Z" fill="#131010"/>
</g>
</g>
<defs>
<clipPath id="clip0_305_341">
<rect width="18" height="18" fill="white"/>
</clipPath>
</defs>
</svg>
