<svg width="18" height="18" viewBox="0 0 18 18" fill="none" xmlns="http://www.w3.org/2000/svg">
<g clip-path="url(#clip0_305_311)">
<path d="M9.19039 17.9983C4.24846 18.0909 0.147496 14.2128 0.00377445 9.24043C-0.139026 4.29992 3.78807 0.14597 8.73195 0.00382129C13.7245 -0.139733 17.8551 3.77895 17.9964 8.79301C18.1359 13.7389 14.1987 17.8546 9.19039 17.9983ZM8.25576 13.4848C8.76478 13.4848 9.24522 13.4848 9.75537 13.4848C9.75537 12.2342 9.75537 10.9955 9.75537 9.73554C11.0184 9.73554 12.2516 9.73554 13.4783 9.73554C13.4783 7.98259 13.4783 6.25146 13.4783 4.51768C12.9807 4.51768 12.5009 4.51768 11.9962 4.51768C11.9962 5.7641 11.9962 6.99702 11.9962 8.23879C11.2363 8.23879 10.5017 8.23879 9.74524 8.23879C9.74524 6.99223 9.74524 5.7587 9.74524 4.51979C9.23809 4.51979 8.75301 4.51979 8.24562 4.51979C8.24562 5.76868 8.24562 7.00183 8.24562 8.23675C7.48817 8.23675 6.75333 8.23675 5.99426 8.23675C5.99426 6.98833 5.99426 5.75514 5.99426 4.52431C5.48436 4.52431 4.99905 4.52431 4.51797 4.52431C4.51797 7.52136 4.51797 10.4978 4.51797 13.4781C5.01737 13.4781 5.50193 13.4781 6.01196 13.4781C6.01196 12.2271 6.01196 10.9948 6.01196 9.76657C6.77241 9.76657 7.50689 9.76657 8.25576 9.76657C8.25576 11.0121 8.25576 12.2401 8.25576 13.4848Z" fill="#131010"/>
</g>
<defs>
<clipPath id="clip0_305_311">
<rect width="18" height="18" fill="white"/>
</clipPath>
</defs>
</svg>
