<svg width="18" height="16" viewBox="0 0 18 16" fill="none" xmlns="http://www.w3.org/2000/svg">
<g id="inside-placeholder-phlajdenie.svg" clip-path="url(#clip0_305_323)">
<path id="Vector" d="M8.98083 15.0597C6.42511 15.0598 3.86942 15.0601 1.31373 15.0598C0.497777 15.0598 0.00213601 14.5763 0.00209858 13.78C0.00176113 9.91954 0.00172313 6.05909 0.00209858 2.19864C0.00217344 1.40962 0.496988 0.920291 1.2955 0.920217C6.42568 0.919849 11.5558 0.919812 16.6859 0.92018C17.5037 0.920254 17.9977 1.40173 17.9978 2.19923C17.9983 6.06583 17.9983 9.93245 17.9978 13.799C17.9977 14.5695 17.4943 15.0593 16.7041 15.0594C14.1296 15.0599 11.5553 15.0597 8.98083 15.0597ZM2.40995 3.86869C2.40995 6.82453 2.40995 9.76016 2.40995 12.6938C3.01284 12.6938 3.60243 12.6938 4.1891 12.6938C4.1891 9.74449 4.1891 6.80886 4.1891 3.86869C3.59073 3.86869 3.0056 3.86869 2.40995 3.86869ZM13.8112 3.86902C13.8112 6.82521 13.8112 9.76084 13.8112 12.6935C14.4145 12.6935 15.004 12.6935 15.5896 12.6935C15.5896 9.74387 15.5896 6.80824 15.5896 3.86902C14.991 3.86902 14.4059 3.86902 13.8112 3.86902ZM8.41075 3.86906C8.41075 6.23584 8.41075 8.58213 8.41075 10.9252C9.0139 10.9252 9.60339 10.9252 10.1891 10.9252C10.1891 8.56483 10.1891 6.21854 10.1891 3.86906C9.59037 3.86906 9.00537 3.86906 8.41075 3.86906ZM5.41046 3.86906C5.41046 6.23584 5.41046 8.58208 5.41046 10.9254C5.81373 10.9254 6.2034 10.9254 6.589 10.9254C6.589 8.56516 6.589 6.21887 6.589 3.86906C6.19028 3.86906 5.80516 3.86906 5.41046 3.86906ZM12.5898 10.9323C12.5898 8.5659 12.5898 6.21967 12.5898 3.87514C12.187 3.87514 11.7973 3.87514 11.4105 3.87514C11.4105 6.23499 11.4105 8.58123 11.4105 10.9323C11.8088 10.9323 12.194 10.9323 12.5898 10.9323Z" fill="#131010"/>
</g>
<defs>
<clipPath id="clip0_305_323">
<rect width="17.9964" height="14.14" fill="white" transform="translate(0.00183105 0.919922)"/>
</clipPath>
</defs>
</svg>
