<svg width="18" height="18" viewBox="0 0 18 18" fill="none" xmlns="http://www.w3.org/2000/svg">
<g clip-path="url(#clip0_305_318)">
<path fill-rule="evenodd" clip-rule="evenodd" d="M5.92546 7.70729H4.71716V8.36913C5.4647 8.36982 6.21221 8.37134 6.95975 8.37437C7.17756 8.37519 7.26061 8.32209 7.2389 8.09834C7.22168 7.91985 7.22965 7.73811 7.23762 7.55803L7.23864 7.53493C7.2539 7.18775 7.45005 6.95121 7.79413 6.92969C8.03783 6.91437 8.95658 6.91512 9.75184 6.9183C9.75159 5.86776 9.75184 4.81721 9.75431 3.76668C9.7569 2.64011 10.4485 1.81381 11.5391 1.62139C11.6561 1.60075 11.7774 1.60079 11.8973 1.60082H11.928C12.3126 1.60037 12.6974 1.60345 13.0821 1.60654C13.9199 1.61326 14.7578 1.61999 15.5943 1.59018C16.7461 1.54917 17.8745 2.39239 17.8619 3.86126C17.847 5.57367 17.8503 7.2863 17.8535 8.99893C17.8549 9.72343 17.8563 10.4482 17.8563 11.1726C17.8563 11.6298 17.8561 12.087 17.8558 12.5441C17.8551 13.6129 17.8544 14.6817 17.8574 15.7504C17.8591 16.3781 17.6851 16.9345 17.2321 17.3831C16.8289 17.7825 16.3387 17.9923 15.7711 17.9947C14.4549 18.0001 13.1386 18.0031 11.8225 17.995C10.7047 17.9879 9.77862 17.1041 9.76387 15.9812C9.74969 14.9028 9.74856 13.8243 9.74982 12.7457C9.12553 12.7457 8.47097 12.7457 8.34685 12.7456C8.29709 12.7456 8.24735 12.7459 8.19759 12.7462C8.08106 12.747 7.96446 12.7478 7.84807 12.7438C7.50847 12.732 7.26035 12.4977 7.24156 12.1595C7.2287 11.9289 7.22472 11.6965 7.23864 11.4661C7.25022 11.2748 7.18535 11.2224 6.99419 11.2231C5.50053 11.2287 4.00687 11.2283 2.51319 11.2279C2.09119 11.2278 1.6692 11.2277 1.2472 11.2277H0.3396V8.369H0.648903C1.11244 8.36906 1.57599 8.36893 2.03955 8.36874C2.037 8.23721 2.03634 8.10618 2.04833 7.9763C2.06946 7.74735 1.97997 7.69027 1.76633 7.70355C1.57292 7.71552 1.37861 7.71292 1.17402 7.7102C1.08328 7.709 0.990522 7.70779 0.894932 7.70779C0.894932 7.6074 0.894716 7.50835 0.894501 7.4103C0.89376 7.0678 0.893046 6.73777 0.901616 6.408C0.902742 6.36521 0.990554 6.30621 1.04889 6.28659C1.17158 6.24538 1.29544 6.20753 1.41928 6.16968C1.57839 6.12107 1.73748 6.07252 1.89403 6.01676C1.95605 5.99467 2.03258 5.90883 2.03687 5.8477C2.04889 5.6766 2.04707 5.5045 2.04514 5.32188C2.04439 5.25194 2.04365 5.18041 2.04365 5.10679H0.894457C0.894457 5.02375 0.894057 4.94325 0.893665 4.86451C0.892792 4.68878 0.89197 4.52178 0.89571 4.35489C0.897033 4.29571 0.893583 4.23255 0.890114 4.16901C0.881019 4.00256 0.871797 3.83367 0.947885 3.72783C1.0177 3.63073 1.17619 3.5964 1.33335 3.56234C1.398 3.54834 1.46241 3.53439 1.52036 3.51615L1.52328 3.51522C2.04628 3.35038 2.04654 3.3503 2.04412 2.79523C2.04389 2.74401 2.04394 2.69283 2.04401 2.63169L2.04407 2.52634C1.94296 2.52634 1.84381 2.52544 1.74606 2.52456C1.51782 2.52252 1.29715 2.52054 1.07702 2.53011C0.894843 2.53801 0.843756 2.47672 0.844623 2.29764C0.844662 2.29105 0.844692 2.28455 0.844725 2.27811C0.846104 1.9936 0.846801 1.85037 0.918762 1.77841C0.991713 1.70546 1.1379 1.70574 1.43229 1.70634C1.73924 1.70694 1.89238 1.70725 1.96868 1.63084C2.0446 1.55483 2.04447 1.40286 2.04421 1.09966C2.04392 0.834828 2.04396 0.569551 2.04401 0.297774L2.04403 0H4.70766L4.70763 0.166693L4.70766 0.493291C4.70772 0.592744 4.70833 0.692208 4.70893 0.791672C4.7104 1.03214 4.71186 1.27261 4.70567 1.51287C4.70167 1.66748 4.76049 1.71253 4.90797 1.7088C5.13592 1.70298 5.36407 1.7041 5.60056 1.70527C5.69902 1.70574 5.79903 1.70625 5.90098 1.70625C5.90098 1.80517 5.90121 1.90252 5.90146 1.99866C5.90224 2.32347 5.90299 2.63444 5.89453 2.9451C5.89331 2.98903 5.80944 3.05058 5.75246 3.06972C5.46524 3.16629 5.17625 3.25913 4.88366 3.33739C4.74464 3.3746 4.69836 3.44421 4.70592 3.58181C4.71539 3.75486 4.71369 3.929 4.70709 4.10228C4.70202 4.23471 4.75644 4.27897 4.88609 4.27654C5.12088 4.27213 5.35574 4.27294 5.59935 4.27378C5.69851 4.27413 5.79928 4.27446 5.90195 4.27446C5.90195 4.37847 5.90222 4.48098 5.90249 4.58235C5.9034 4.91448 5.90426 5.23428 5.89521 5.55381C5.89382 5.60349 5.80836 5.67426 5.74807 5.69483C5.46133 5.7925 5.17117 5.88105 4.87937 5.96258C4.75657 5.99688 4.69966 6.0524 4.70571 6.18735C4.71264 6.34254 4.71121 6.49819 4.70972 6.66175C4.70906 6.73277 4.70839 6.80525 4.70839 6.87987H5.92551L5.92546 7.70729Z" fill="#131010"/>
</g>
<defs>
<clipPath id="clip0_305_318">
<rect width="18" height="18" fill="white"/>
</clipPath>
</defs>
</svg>
