<svg width="14" height="18" viewBox="0 0 14 18" fill="none" xmlns="http://www.w3.org/2000/svg">
<g id="inside-placeholder-svet1.svg">
<path id="Vector" fill-rule="evenodd" clip-rule="evenodd" d="M10.8967 10.1629C12.1359 9.10417 12.9215 7.52998 12.9215 5.77229C12.9215 2.58435 10.3372 0 7.14925 0C3.9613 0 1.37695 2.58435 1.37695 5.77229C1.37695 7.34936 2.0094 8.7787 3.0345 9.82054C3.0441 9.83276 3.054 9.84501 3.06423 9.85728C3.60489 10.5061 4.12989 12.255 4.12989 12.255H9.72458C9.89308 11.6652 10.4002 10.8828 10.8967 10.1629ZM4.57393 13.8398L4.39632 12.9518H9.54698L9.45818 13.3959L9.36937 13.8398H4.57393ZM9.45818 14.5365H4.39632V16.1351H4.94033C4.93294 16.1934 4.92915 16.2527 4.92915 16.3126C4.92915 17.2445 5.84361 18 6.97166 18C8.09969 18 9.01416 17.2445 9.01416 16.3126C9.01416 16.2527 9.01036 16.1934 9.00298 16.1351H9.45818V14.5365Z" fill="#131010"/>
</g>
</svg>
