<svg width="18" height="18" viewBox="0 0 18 18" fill="none" xmlns="http://www.w3.org/2000/svg">
<g id="inside-placeholder-instrument1.svg" clip-path="url(#clip0_305_335)">
<path id="Vector" d="M11.6808 7.99951C11.6295 7.94821 11.5805 7.89451 11.5507 7.8631C13.2057 6.20819 14.8443 4.56959 16.4906 2.92342C16.5979 3.02521 16.7195 3.14065 16.8529 3.26712C17.24 2.62201 17.6153 1.99664 17.9819 1.3857C17.7166 1.12256 17.4652 0.873015 17.2052 0.615093C16.5931 0.982657 15.9676 1.35819 15.3026 1.75745C15.4515 1.8815 15.5812 1.98962 15.6811 2.0729C14.0084 3.7456 12.3661 5.38783 10.7184 7.03547C10.3489 6.67948 9.96258 6.30154 9.56856 5.9318C9.47258 5.84174 9.44985 5.76312 9.47644 5.63023C9.78455 4.0905 9.3617 2.77181 8.22534 1.697C7.18202 0.710238 5.89414 0.507588 4.52351 0.616531C4.46126 0.621458 4.4011 0.652174 4.33996 0.670899C4.32912 0.690035 4.31828 0.709171 4.30744 0.728306C4.36936 0.771095 4.43954 0.805589 4.49201 0.857863C5.38421 1.74636 6.27272 2.63852 7.16678 3.52517C7.26304 3.62064 7.28259 3.69924 7.23756 3.82916C7.01177 4.48097 6.79432 5.13574 6.58253 5.79227C6.5444 5.91049 6.48448 5.96863 6.36777 6.00642C5.71145 6.21882 5.0564 6.43554 4.40454 6.66116C4.27343 6.70652 4.19722 6.68144 4.10265 6.58613C3.21119 5.68722 2.31456 4.79347 1.419 3.89864C1.36964 3.84932 1.31655 3.80375 1.26518 3.75644C1.23832 3.76363 1.21142 3.77082 1.18456 3.77796C1.18456 4.17977 1.17212 4.58203 1.18699 4.98331C1.22505 6.00917 1.59644 6.90964 2.30294 7.64783C3.37392 8.76688 4.67742 9.21382 6.21695 8.90665C6.29222 8.89159 6.40128 8.89691 6.45332 8.94121C6.65091 9.10943 6.83358 9.29557 7.01648 9.48026C7.0484 9.51246 7.08239 9.58274 7.06822 9.61433C6.89804 9.99445 6.75524 10.4089 6.38502 10.6395C6.0223 10.8655 5.63807 11.0732 5.23745 11.2167C4.95879 11.3166 4.6357 11.2894 4.334 11.3302C4.25614 11.3408 4.16638 11.376 4.11197 11.43C3.16967 12.365 2.23186 13.3047 1.29347 14.2438C1.2568 14.2805 1.22456 14.3217 1.2083 14.3403C2.23055 15.3627 3.24018 16.3726 4.25746 17.3901C4.29815 17.3512 4.35264 17.3009 4.40505 17.2486C5.27618 16.3776 6.14332 15.5027 7.02112 14.6386C7.19708 14.4654 7.33254 14.3056 7.24434 14.0415C7.22396 13.9803 7.2351 13.9046 7.24569 13.8377C7.40747 12.8144 7.86561 11.9947 8.83194 11.5186C8.95077 11.46 9.01847 11.4683 9.11054 11.563C9.61124 12.0784 10.1176 12.5882 10.6246 13.0973C11.5419 14.0187 12.4573 14.9421 13.3805 15.8576C14.3097 16.7789 15.8122 16.7116 16.5938 15.7211C17.2341 14.9098 17.2999 13.6312 16.3238 12.6464C14.7825 11.0912 13.229 9.54803 11.6808 7.99951Z" fill="#131010"/>
</g>
<defs>
<clipPath id="clip0_305_335">
<rect width="18" height="16.8" fill="white" transform="translate(0 0.590088)"/>
</clipPath>
</defs>
</svg>
