<svg width="50" height="50" viewBox="0 0 50 50" fill="none" xmlns="http://www.w3.org/2000/svg">
<path fill-rule="evenodd" clip-rule="evenodd" d="M25 50C38.8071 50 50 38.8071 50 25C50 11.1929 38.8071 0 25 0C11.1929 0 0 11.1929 0 25C0 38.8071 11.1929 50 25 50ZM33.9496 16.3128C35.8689 16.4862 36.9501 17.6602 37.1872 19.532C37.353 20.8378 37.5 22.7082 37.5 24.7193C37.5 28.2513 37.1872 30.2934 37.1872 30.2934C36.8928 32.1575 35.9916 33.1697 34.0966 33.3839C31.9793 33.6232 27.2172 33.7335 25.1012 33.7335C22.9113 33.7335 18.4822 33.6416 16.2713 33.4575C14.3708 33.2993 13.0741 32.2377 12.8128 30.3484C12.6228 28.9727 12.5 27.3376 12.5 24.7377C12.5 21.8433 12.6044 20.6186 12.8496 19.3111C13.1995 17.4452 14.0899 16.5413 16.1238 16.3312C18.2582 16.1103 20.2751 16 24.7885 16C26.995 16 31.7521 16.1142 33.9496 16.3128ZM22.3418 21.1936V28.3804L29.1849 24.7502L22.3418 21.1936Z" fill="white"/>
</svg>
